<svg width="750" height="550" viewBox="0 0 750 550">
<defs>
<pattern id="Pat01" width="25" height="25" patternUnits="userSpaceOnUse">
	<rect width="25" height="25" fill="none" stroke="#000000" stroke-width="0.1"/>
</pattern>
<marker id="green" viewBox="-15 -5 20 20" refX="0" refY="0" 
            	markerUnits="strokeWidth" markerWidth="20" markerHeight="12" 
	        orient="auto">
    		    <path d="M -15 -5 L 0 0 L -15 5 z" fill="green"/>
</marker>
</defs>
<rect width="750" height="550" fill="white" />
<text x="20" y="20" font-size="15">We test if triangles have same area
<tspan x="20" dy="2em">Script</tspan>
<tspan x="20" dy="1em">str = evt.target.getAttributeNS(null,"d")</tspan>
<tspan x="20" dy="1em">l_pos = str.indexOf("l")</tspan>
<tspan x="20" dy="1em">str = str.substring(l_pos +1,str.length - 1)</tspan>
<tspan x="20" dy="1em">values = str.split(" ")</tspan>
<tspan x="20" dy="1em">area1 = 0.5 * Math.abs( values[0] * values[3] - values[1] * values[2])</tspan>
<tspan x="20" dy="2em">SVG objects</tspan>
<tspan x="20" dy="1em">&lt;!-- some triangles --&gt;</tspan>
</text>
<rect x="25" y="200" width="701" height="301" fill="url(#Pat01)" onclick="alert(evt.clientX + ' ; ' + evt.clientY)" />
<a>
<g onclick="test_area(evt)">
<path d="M75 250l-25 75 50 0z" style="stroke:green;stroke-width:1;fill:green;fill-opacity:0.3"/> 
<path d="M375 250l150 0 -150 -25z" style="stroke:green;stroke-width:1;fill:green;fill-opacity:0.3"/> 
<path d="M475 350l-50 75 50 0z" style="stroke:green;stroke-width:1;fill:green;fill-opacity:0.3"/> 
<path d="M575 450l50 -75 -50 0z" style="stroke:green;stroke-width:1;fill:green;fill-opacity:0.3"/> 
<path d="M175 350l150 -75 -100 0z" style="stroke:green;stroke-width:1;fill:green;fill-opacity:0.3"/> 
<path d="M325 350l75 75 -100 0z" style="stroke:green;stroke-width:1;fill:green;fill-opacity:0.3"/> 
<path d="M425 275l-25 50 -125 0z" style="stroke:green;stroke-width:1;fill:green;fill-opacity:0.3"/> 
<path d="M50 400l100 50 -100 50z" style="stroke:green;stroke-width:1;fill:green;fill-opacity:0.3"/> 
<path d="M125 225l200 0 -200 50z" style="stroke:green;stroke-width:1;fill:green;fill-opacity:0.3"/> 
<path d="M125 350l150 100 -150 -50z" style="stroke:green;stroke-width:1;fill:green;fill-opacity:0.3"/> 
<path d="M650 225l50 50 -50 100z" style="stroke:green;stroke-width:1;fill:green;fill-opacity:0.3"/> 
<path d="M525 275l0 75 50 0z" style="stroke:green;stroke-width:1;fill:green;fill-opacity:0.3"/> 
<path d="M650 425l50 50 -125 0z" style="stroke:green;stroke-width:1;fill:green;fill-opacity:0.3"/> 
<path d="M550 225l25 50 50 0z" style="stroke:green;stroke-width:1;fill:green;fill-opacity:0.3"/> 
<path d="M550 375l-25 100 -50 0z" style="stroke:green;stroke-width:1;fill:green;fill-opacity:0.3"/> 
<path d="M300 450l0 25 125 0z" style="stroke:green;stroke-width:1;fill:green;fill-opacity:0.3"/> 
</g>
</a>
<text x="375" y="530" text-anchor="middle">Click two triangles with same area</text>
</svg>