<svg width="700" height="600" viewBox="0 0 700 600">
<defs>
<pattern id="Pat01" width="50" height="50" patternUnits="userSpaceOnUse">
	<rect width="50" height="50" fill="white" stroke="#000000" stroke-width="0.1"/>
</pattern>
<marker id="Marker01" viewBox="-15 -5 20 20" refX="0" refY="0" 
            	markerUnits="strokeWidth" markerWidth="10" markerHeight="6" 
	        orient="auto">
    		    <path d="M -15 -5 L 0 0 L -15 5 z" />
</marker>
<marker id="green" viewBox="-15 -5 20 20" refX="0" refY="0" 
            	markerUnits="strokeWidth" markerWidth="10" markerHeight="6" 
	        orient="auto">
    		    <path d="M -15 -5 L 0 0 L -15 5 z" fill="green"/>
</marker>
<marker id="red" viewBox="-15 -5 20 20" refX="0" refY="0" 
            	markerUnits="strokeWidth" markerWidth="10" markerHeight="6" 
	        orient="auto">
    		    <path d="M -15 -5 L 0 0 L -15 5 z" fill="red"/>
</marker>
<g id="system">
    <line marker-end="url(#Marker01)" x1="0" y1="0" x2="50" y2="0" style="stroke:black;stroke-width:2"/> 
    <line marker-end="url(#Marker01)" x1="0" y1="0" x2="0" y2="-50" style="stroke:black;stroke-width:2"/> 
    <circle cx="0" cy="0" r="3" stroke="black"/>
</g>
<g id="system2">
    <line marker-end="url(#Marker01)" x1="0" y1="0" x2="50" y2="0" style="stroke:black;stroke-width:1"/> 
    <line marker-end="url(#Marker01)" x1="0" y1="0" x2="0" y2="-50" style="stroke:black;stroke-width:1"/> 
    <circle cx="0" cy="0" r="1.5" stroke="black"/>
</g>
</defs>
 <rect width="700" height="600" fill="white"/>
  <text x="20" y="30" font-size="15">
    Function: y(x) = atan(x)
  </text>
<g onmouseup="click=false">
<rect x="0" y="50" width="700" height="471" fill="url(#Pat01)" stroke="black"/>
<circle cx="550" cy="400" r="100" fill="none" stroke="green" stroke-dasharray="4 4"/>
<path d="M550 500A100 100 0 0 0 550 300" stroke="green" fill="none" stroke-width="2"/>
<use transform="translate(350,250) scale(2)" xlink:href="#system2" fill="green"/>
<use transform="translate(550,400) scale(2)" xlink:href="#system2" fill="green"/>
<path id="graph" d="M0,0 500,0" stroke="darkblue" stroke-width="2" fill="none" />
<text x="20" y="550" fill="red">Move red circle to change value of tangente</text>
<text x="520" y="90">Angle : <tspan id="ag"> 0 </tspan> degrees</text>
<text x="520" y="70">tan ( angle ) : <tspan id="atan"> 0 </tspan></text>
<circle id="p2" cx="650" cy="400" r="4" fill="green"/>

<line x1="0" y1="250" x2="700" y2="250" stroke="red" fill="none" stroke-width="2"/>
<line id="l1" x1="550" y1="400" x2="650" y2="400" stroke="green" fill="none" stroke-width="2"/>

<circle onmousedown="click=true" onmousemove="arctangente_move(evt)" id="p1" cx="350" cy="250" r="4" fill="red"/>
</g>
</svg>  

