<svg width="700" height="600" viewBox="0 0 700 600">
<rect width="700" height="600" fill="white"/>
<text x="20" y="20" font-size="15">Solve linear system </text>
<text id="c00" x="60" y="50" text-anchor="end">1</text>
<rect x="20" y="35" width="50" height="20" stroke="black" fill="none"/>
<rect x="70" y="35" width="20" height="20" stroke="black" fill="lightgray"/>
<path d="M72 37h18 l-9 6z"/>
<path d="M72 53h18 l-9 -6z"/>
<rect onclick="eqsystem3_change_coeff(0,0,-1)" x="70" y="35" width="20" height="10" stroke="black" fill="white" fill-opacity="0"/>
<rect onclick="eqsystem3_change_coeff(0,0,1)" x="70" y="45" width="20" height="10" stroke="black" fill="white" fill-opacity="0"/>
<text x="110" y="50" font-size="18">x + </text>
<text id="c01" x="190" y="50" text-anchor="end">-2</text>
<rect x="150" y="35" width="50" height="20" stroke="black" fill="none"/>
<rect x="200" y="35" width="20" height="20" stroke="black" fill="lightgray"/>
<path d="M202 37h18 l-9 6z"/>
<path d="M202 53h18 l-9 -6z"/>
<rect onclick="eqsystem3_change_coeff(0,1,-1)" x="200" y="35" width="20" height="10" stroke="black" fill="white" fill-opacity="0"/>
<rect onclick="eqsystem3_change_coeff(0,1,1)" x="200" y="45" width="20" height="10" stroke="black" fill="white" fill-opacity="0"/>
<text x="240" y="50" font-size="18">y +</text>
<text id="c02" x="320" y="50" text-anchor="end">3</text>
<rect x="280" y="35" width="50" height="20" stroke="black" fill="none"/>
<rect x="330" y="35" width="20" height="20" stroke="black" fill="lightgray"/>
<path d="M332 37h18 l-9 6z"/>
<path d="M332 53h18 l-9 -6z"/>
<rect onclick="eqsystem3_change_coeff(0,2,-1)" x="330" y="35" width="20" height="10" stroke="black" fill="white" fill-opacity="0"/>
<rect onclick="eqsystem3_change_coeff(0,2,1)" x="330" y="45" width="20" height="10" stroke="black" fill="white" fill-opacity="0"/>
<text x="370" y="50" font-size="18">z =</text>
<text id="c03" x="450" y="50" text-anchor="end">2</text>
<rect x="410" y="35" width="50" height="20" stroke="black" fill="none"/>
<rect x="460" y="35" width="20" height="20" stroke="black" fill="lightgray"/>
<path d="M462 37h18 l-9 6z"/>
<path d="M462 53h18 l-9 -6z"/>
<rect onclick="eqsystem3_change_coeff(0,3,-1)" x="460" y="35" width="20" height="10" stroke="black" fill="white" fill-opacity="0"/>
<rect onclick="eqsystem3_change_coeff(0,3,1)" x="460" y="45" width="20" height="10" stroke="black" fill="white" fill-opacity="0"/>
<g transform="translate(0,40)">
<text id="c10" x="60" y="50" text-anchor="end">-2</text>
<rect x="20" y="35" width="50" height="20" stroke="black" fill="none"/>
<rect x="70" y="35" width="20" height="20" stroke="black" fill="lightgray"/>
<path d="M72 37h18 l-9 6z"/>
<path d="M72 53h18 l-9 -6z"/>
<rect onclick="eqsystem3_change_coeff(1,0,-1)" x="70" y="35" width="20" height="10" stroke="black" fill="white" fill-opacity="0"/>
<rect onclick="eqsystem3_change_coeff(1,0,1)" x="70" y="45" width="20" height="10" stroke="black" fill="white" fill-opacity="0"/>
<text x="110" y="50" font-size="18">x + </text>
<text id="c11" x="190" y="50" text-anchor="end">1</text>
<rect x="150" y="35" width="50" height="20" stroke="black" fill="none"/>
<rect x="200" y="35" width="20" height="20" stroke="black" fill="lightgray"/>
<path d="M202 37h18 l-9 6z"/>
<path d="M202 53h18 l-9 -6z"/>
<rect onclick="eqsystem3_change_coeff(1,1,-1)" x="200" y="35" width="20" height="10" stroke="black" fill="white" fill-opacity="0"/>
<rect onclick="eqsystem3_change_coeff(1,1,1)" x="200" y="45" width="20" height="10" stroke="black" fill="white" fill-opacity="0"/>
<text x="240" y="50" font-size="18">y +</text>
<text id="c12" x="320" y="50" text-anchor="end">3</text>
<rect x="280" y="35" width="50" height="20" stroke="black" fill="none"/>
<rect x="330" y="35" width="20" height="20" stroke="black" fill="lightgray"/>
<path d="M332 37h18 l-9 6z"/>
<path d="M332 53h18 l-9 -6z"/>
<rect onclick="eqsystem3_change_coeff(1,2,-1)" x="330" y="35" width="20" height="10" stroke="black" fill="white" fill-opacity="0"/>
<rect onclick="eqsystem3_change_coeff(1,2,1)" x="330" y="45" width="20" height="10" stroke="black" fill="white" fill-opacity="0"/>
<text x="370" y="50" font-size="18">z =</text>
<text id="c13" x="450" y="50" text-anchor="end">2</text>
<rect x="410" y="35" width="50" height="20" stroke="black" fill="none"/>
<rect x="460" y="35" width="20" height="20" stroke="black" fill="lightgray"/>
<path d="M462 37h18 l-9 6z"/>
<path d="M462 53h18 l-9 -6z"/>
<rect onclick="eqsystem3_change_coeff(1,3,-1)" x="460" y="35" width="20" height="10" stroke="black" fill="white" fill-opacity="0"/>
<rect onclick="eqsystem3_change_coeff(1,3,1)" x="460" y="45" width="20" height="10" stroke="black" fill="white" fill-opacity="0"/>
</g>
<g transform="translate(0,80)">
<text id="c20" x="60" y="50" text-anchor="end">3</text>
<rect x="20" y="35" width="50" height="20" stroke="black" fill="none"/>
<rect x="70" y="35" width="20" height="20" stroke="black" fill="lightgray"/>
<path d="M72 37h18 l-9 6z"/>
<path d="M72 53h18 l-9 -6z"/>
<rect onclick="eqsystem3_change_coeff(2,0,-1)" x="70" y="35" width="20" height="10" stroke="black" fill="white" fill-opacity="0"/>
<rect onclick="eqsystem3_change_coeff(2,0,1)" x="70" y="45" width="20" height="10" stroke="black" fill="white" fill-opacity="0"/>
<text x="110" y="50" font-size="18">x + </text>
<text id="c21" x="190" y="50" text-anchor="end">0</text>
<rect x="150" y="35" width="50" height="20" stroke="black" fill="none"/>
<rect x="200" y="35" width="20" height="20" stroke="black" fill="lightgray"/>
<path d="M202 37h18 l-9 6z"/>
<path d="M202 53h18 l-9 -6z"/>
<rect onclick="eqsystem3_change_coeff(2,1,-1)" x="200" y="35" width="20" height="10" stroke="black" fill="white" fill-opacity="0"/>
<rect onclick="eqsystem3_change_coeff(2,1,1)" x="200" y="45" width="20" height="10" stroke="black" fill="white" fill-opacity="0"/>
<text x="240" y="50" font-size="18">y +</text>
<text id="c22" x="320" y="50" text-anchor="end">1</text>
<rect x="280" y="35" width="50" height="20" stroke="black" fill="none"/>
<rect x="330" y="35" width="20" height="20" stroke="black" fill="lightgray"/>
<path d="M332 37h18 l-9 6z"/>
<path d="M332 53h18 l-9 -6z"/>
<rect onclick="eqsystem3_change_coeff(2,2,-1)" x="330" y="35" width="20" height="10" stroke="black" fill="white" fill-opacity="0"/>
<rect onclick="eqsystem3_change_coeff(2,2,1)" x="330" y="45" width="20" height="10" stroke="black" fill="white" fill-opacity="0"/>
<text x="370" y="50" font-size="18">z =</text>
<text id="c23" x="450" y="50" text-anchor="end">4</text>
<rect x="410" y="35" width="50" height="20" stroke="black" fill="none"/>
<rect x="460" y="35" width="20" height="20" stroke="black" fill="lightgray"/>
<path d="M462 37h18 l-9 6z"/>
<path d="M462 53h18 l-9 -6z"/>
<rect onclick="eqsystem3_change_coeff(2,3,-1)" x="460" y="35" width="20" height="10" stroke="black" fill="white" fill-opacity="0"/>
<rect onclick="eqsystem3_change_coeff(2,3,1)" x="460" y="45" width="20" height="10" stroke="black" fill="white" fill-opacity="0"/>
</g>
<text x="20" y="160" font-size="15">Diagonalized system </text>
<g transform="translate(0,140)">
<text id="d00" x="90" y="50" text-anchor="end"> </text>
<rect x="20" y="35" width="80" height="20" stroke="black" fill="none"/>
<text x="110" y="50" font-size="18">x + </text>
<text id="d01" x="220" y="50" text-anchor="end"> </text>
<rect x="150" y="35" width="80" height="20" stroke="black" fill="none"/>
<text x="240" y="50" font-size="18">y +</text>
<text id="d02" x="350" y="50" text-anchor="end"> </text>
<rect x="280" y="35" width="80" height="20" stroke="black" fill="none"/>
<text x="370" y="50" font-size="18">z =</text>
<text id="d03" x="480" y="50" text-anchor="end"> </text>
<rect x="410" y="35" width="80" height="20" stroke="black" fill="none"/>
</g>
<g transform="translate(0,180)">
<text id="d10" x="90" y="50" text-anchor="end"> </text>
<rect x="20" y="35" width="80" height="20" stroke="black" fill="none"/>
<text x="110" y="50" font-size="18">x + </text>
<text id="d11" x="220" y="50" text-anchor="end"> </text>
<rect x="150" y="35" width="80" height="20" stroke="black" fill="none"/>
<text x="240" y="50" font-size="18">y +</text>
<text id="d12" x="350" y="50" text-anchor="end"> </text>
<rect x="280" y="35" width="80" height="20" stroke="black" fill="none"/>
<text x="370" y="50" font-size="18">z =</text>
<text id="d13" x="480" y="50" text-anchor="end"> </text>
<rect x="410" y="35" width="80" height="20" stroke="black" fill="none"/>
</g>
<g transform="translate(0,220)">
<text id="d20" x="90" y="50" text-anchor="end"> </text>
<rect x="20" y="35" width="80" height="20" stroke="black" fill="none"/>
<text x="110" y="50" font-size="18">x + </text>
<text id="d21" x="220" y="50" text-anchor="end"> </text>
<rect x="150" y="35" width="80" height="20" stroke="black" fill="none"/>
<text x="240" y="50" font-size="18">y +</text>
<text id="d22" x="350" y="50" text-anchor="end"> </text>
<rect x="280" y="35" width="80" height="20" stroke="black" fill="none"/>
<text x="370" y="50" font-size="18">z =</text>
<text id="d23" x="480" y="50" text-anchor="end"> </text>
<rect x="410" y="35" width="80" height="20" stroke="black" fill="none"/>
</g>
<text x="20" y="300" font-size="15">Solution for x : <tspan id="sol0"> </tspan></text>
<text x="20" y="320" font-size="15">Solution for y : <tspan id="sol1"> </tspan></text>
<text x="20" y="340" font-size="15">Solution for z : <tspan id="sol2"> </tspan></text>
<text x="70" y="405" text-anchor="middle">Solution</text>
<text x="70" y="435" text-anchor="middle">Animation</text>
<text x="70" y="465" text-anchor="middle">Step by step</text>
<rect onclick="eqsystem3_calcul(true,1)" x="20" y="390" width="100" height="20" stroke="black" fill="red" fill-opacity="0.2"/>
<rect onclick="eqsystem3_calcul(true,1000)" x="20" y="420" width="100" height="20" stroke="black" fill="green" fill-opacity="0.2"/>
<rect onclick="eqsystem3_calcul(false,0)" x="20" y="450" width="100" height="20" stroke="black" fill="blue" fill-opacity="0.2"/>

</svg>