<svg width="700" height="600" viewBox="0 0 700 600">
<defs>
<pattern id="Pat01" width="25" height="25" patternUnits="userSpaceOnUse" preserveAspectRatio="xMidYMid meet">
	<rect width="25" height="25" fill="none" stroke="#000000" stroke-width="0.1"/>
</pattern>
<marker id="Marker01" viewBox="-15 -5 20 20" refX="0" refY="0" markerUnits="strokeWidth" markerWidth="10" markerHeight="6" orient="auto" preserveAspectRatio="xMidYMid meet">
    		    <path d="M -15 -5 L 0 0 L -15 5 z"/>
</marker>
<g id="system">
    <line marker-end="url(#Marker01)" x1="0" y1="0" x2="25" y2="0" style="stroke:black;stroke-width:2"/> 
    <line marker-end="url(#Marker01)" x1="0" y1="0" x2="0" y2="-25" style="stroke:black;stroke-width:2"/> 
    <circle cx="0" cy="0" r="3" stroke="black"/>
</g>
</defs>
<g onmouseup="click=false">
<rect width="700" height="600" fill="white"/>
<rect x="0" y="0" width="700" height="600" fill="url(#Pat01)"/>
<use x="350" y="300" xlink:href="#system" fill="blue"/>
<text id="a" style="text-anchor:middle;font-size:14;fill:blue" x="178" y="101" dx="-14" dy="-5" startOffset="0">A</text>
<text id="b" style="text-anchor:middle;font-size:14;fill:blue" x="467" y="421" dx="14" dy="-5" startOffset="0">B</text>
<text id="c" style="text-anchor:middle;font-size:14;fill:blue" x="175" y="374" dx="-14" dy="-5" startOffset="0">C</text>
<text id="d" style="text-anchor:middle;font-size:14;fill:blue" x="525" y="125" dx="14" dy="-5" startOffset="0">D</text>
<text id="e" style="text-anchor:middle;font-size:14;fill:blue" x="525" y="125" dx="14" dy="-5" startOffset="0">E</text>
<line id="line1" x1="178" y1="101" x2="467" y2="421" fill="none" stroke="green" stroke-width="2"/>
<path id="quadra" d="M525 125Q350 75 175 374" fill="none" stroke="green" stroke-width="2"/>
<g id="inter" visibility="visible">
<text id="f" style="text-anchor:middle;font-size:14;fill:blue" x="583.931" y="550.474" dx="14" dy="-5" startOffset="0">F</text>
<text id="g" style="text-anchor:middle;font-size:14;fill:blue" x="583.931" y="550.474" dx="14" dy="-5" startOffset="0">G</text>
<circle id="p6" cx="583.931" cy="550.474" r="4" fill="blue"/>
<circle id="p7" cx="583.931" cy="550.474" r="4" fill="blue"/>
</g>
<rect width="700" height="600" fill="yellow" fill-opacity="0.1"/>
<g onmousedown="click=true" onmousemove="intersegmentquadra_move(evt)">
<circle id="p1" cx="178" cy="101" r="4" fill="red"/>
<circle id="p2" cx="467" cy="421" r="4" fill="red"/>
<circle id="p3" cx="525" cy="125" r="4" fill="red"/>
<circle id="p4" cx="175" cy="374" r="4" fill="red"/>
<circle id="p5" cx="350" cy="75" r="4" fill="red"/>
</g>
</g>
</svg>
