<svg width="700" height="600" viewBox="0 0 700 600">
<defs>
<pattern id="Pat01" width="25" height="25" patternUnits="userSpaceOnUse" preserveAspectRatio="xMidYMid meet">
	<rect width="25" height="25" fill="none" stroke="#000000" stroke-width="0.1"/>
</pattern>
<marker id="Marker01" viewBox="-15 -5 20 20" refX="0" refY="0" markerUnits="strokeWidth" markerWidth="10" markerHeight="6" orient="auto" preserveAspectRatio="xMidYMid meet">
    		    <path d="M -15 -5 L 0 0 L -15 5 z"/>
</marker>
<g id="system">
    <line marker-end="url(#Marker01)" x1="0" y1="0" x2="25" y2="0" style="stroke:black;stroke-width:2"/> 
    <line marker-end="url(#Marker01)" x1="0" y1="0" x2="0" y2="-25" style="stroke:black;stroke-width:2"/> 
    <circle cx="0" cy="0" r="3" stroke="black"/>
</g>
</defs>
<g onmouseup="click=false">
<rect width="700" height="600" fill="white"/>
<rect x="0" y="0" width="700" height="600" fill="url(#Pat01)"/>
<use x="350" y="300" xlink:href="#system" fill="blue"/>
<text id="a" style="text-anchor:middle;font-size:14;fill:blue" x="423" y="164" dx="-14" dy="-5" startOffset="0">A</text>
<text id="b" style="text-anchor:middle;font-size:14;fill:blue" x="599" y="299" dx="14" dy="-5" startOffset="0">B</text>
<text id="c" style="text-anchor:middle;font-size:14;fill:blue" x="423" y="164" dx="-14" dy="-5" startOffset="0">C</text>
<text id="w" style="text-anchor:middle;font-size:14;fill:blue" x="150" y="150" dx="14" dy="-5" startOffset="0">w</text>
<circle id="circ1" cx="150" cy="150" r="100" fill="red" stroke="red" fill-opacity="0.1"/>
<line id="line1" x1="0" y1="0" x2="0" y2="0" fill="none" stroke="green" stroke-width="2"/>
<g id="inter" visibility="hidden">
<text id="e" style="text-anchor:middle;font-size:14;fill:blue" x="250" y="150" dx="14" dy="-5" startOffset="0">E</text>
<text id="f" style="text-anchor:middle;font-size:14;fill:blue" x="150" y="400" dx="14" dy="-5" startOffset="0">F</text>
<circle id="p5" cx="150" cy="150" r="4" fill="blue"/>
<circle id="p6" cx="423" cy="164" r="4" fill="blue"/>
</g>
<rect width="700" height="600" fill="yellow" fill-opacity="0.1"/>
<g onmousedown="click=true" onmousemove="interlinecircle_move(evt)">
<circle id="p1" cx="423" cy="164" r="4" fill="red"/>
<circle id="p2" cx="599" cy="299" r="4" fill="red"/>
<circle id="p3" cx="423" cy="164" r="4" fill="red"/>
<circle id="p4" cx="50" cy="150" r="4" fill="red"/>
</g>
</g>
</svg>
