<svg width="700" height="600" viewBox="0 0 700 600">
<defs>
<pattern id="Pat01" width="25" height="25" patternUnits="userSpaceOnUse" preserveAspectRatio="xMidYMid meet">
	<rect width="25" height="25" fill="white" stroke="#000000" stroke-width="0.1"/>
</pattern>
<marker id="Marker01" viewBox="-15 -5 20 20" refX="0" refY="0" markerUnits="strokeWidth" markerWidth="10" markerHeight="6" orient="auto" preserveAspectRatio="xMidYMid meet">
    		    <path d="M -15 -5 L 0 0 L -15 5 z"/>
</marker>
<marker id="green" viewBox="-15 -5 20 20" refX="0" refY="0" markerUnits="strokeWidth" markerWidth="10" markerHeight="6" orient="auto" preserveAspectRatio="xMidYMid meet">
    		    <path d="M -15 -5 L 0 0 L -15 5 z" fill="green"/>
</marker>
<marker id="blue" viewBox="-15 -5 20 20" refX="0" refY="0" markerUnits="strokeWidth" markerWidth="10" markerHeight="6" orient="auto" preserveAspectRatio="xMidYMid meet">
    		    <path d="M -15 -5 L 0 0 L -15 5 z" fill="blue"/>
</marker>
<g id="system">
    <line marker-end="url(#Marker01)" x1="0" y1="0" x2="25" y2="0" style="stroke:black;stroke-width:2"/> 
    <line marker-end="url(#Marker01)" x1="0" y1="0" x2="0" y2="-25" style="stroke:black;stroke-width:2"/> 
    <circle cx="0" cy="0" r="3" stroke="black"/>
</g>
</defs>
<g onmouseup="click=false">
<rect width="700" height="600" fill="url(#Pat01)"/>
<use x="50" y="250" xlink:href="#system" fill="blue"/>
<line id="AB" x1="100" y1="350" x2="100" y2="150" style="stroke:black;stroke-width:4"/> 
<line id="AC" x1="100" y1="350" x2="425" y2="350" style="stroke:black;stroke-width:4"/> 
<line id="BD" x1="100" y1="150" x2="425" y2="150" style="stroke:black;stroke-width:4"/> 
<line id="CD" x1="425" y1="350" x2="425" y2="150" style="stroke:black;stroke-width:4"/> 

<path id="ag" marker-end="url(#green)" d="M175 350A 75 75 0 0 0 100 275" style="stroke:green;stroke-width:2;fill:none"/>
<text id="a" style="text-anchor:middle;font-size:15;fill:blue" x="100" y="350" dx="-15" dy="-10" startOffset="0">A</text>
<text id="b" style="text-anchor:middle;font-size:15;fill:blue" x="100" y="150" dx="15" dy="-10" startOffset="0">B</text>
<text id="d" style="text-anchor:middle;font-size:15;fill:blue" x="425" y="150" dx="15" dy="-10" startOffset="0">C</text>
<text id="c" style="text-anchor:middle;font-size:15;fill:blue" x="425" y="350" dx="15" dy="15" startOffset="0">D</text>
<text x="20" y="500" font-size="15" startOffset="0">Coordinates A : <tspan id="xya">2 ; -4</tspan></text>
<text x="20" y="520" font-size="15" startOffset="0">Coordinates B : <tspan id="xyb">2 ; 4</tspan></text>
<text x="20" y="540" font-size="15" startOffset="0">Coordinates C : <tspan id="xyd">15 ; 4</tspan></text>
<text x="20" y="560" font-size="15" startOffset="0">Coordinates D : <tspan id="xyc">15 ; -4</tspan></text>
<text x="20" y="20" font-size="15" startOffset="0">Vector AB</text>
<text x="20" y="40" font-size="15" startOffset="0">Ux : <tspan id="vxt">0</tspan></text>
<text x="20" y="60" font-size="15" startOffset="0">Uy : <tspan id="vyt">8</tspan></text>
<text x="20" y="80" font-size="15" startOffset="0">Length : <tspan id="vl">8</tspan></text>
<text x="150" y="20" font-size="15" startOffset="0">Vector AD :</text>
<text x="150" y="40" font-size="15" startOffset="0">Ux : <tspan id="vxt2">13</tspan></text>
<text x="150" y="60" font-size="15" startOffset="0">Uy : <tspan id="vyt2">0</tspan></text>
<text x="150" y="80" font-size="15" startOffset="0">Length : <tspan id="vl2">13</tspan></text>
<text x="480" y="20" font-size="15" startOffset="0">Vector W = AB ^ AC :</text>
<text x="480" y="40" font-size="15" startOffset="0">Vector Wz : <tspan id="vxs">-104</tspan></text>
<text x="480" y="60" font-size="15" startOffset="0">Vector length : <tspan id="vls">104</tspan></text>
<text x="480" y="80" font-size="15" fill="blue" startOffset="0">Area ABCD : <tspan id="area">104</tspan></text>
<text x="480" y="100" font-size="15" fill="blue" startOffset="0">Angle A : <tspan id="ang">90</tspan> degrees</text>
<text x="480" y="120" font-size="15" fill="blue" startOffset="0">Perimeter ABCD : <tspan id="peri">42</tspan></text>
<g onmousedown="click=true" onmousemove="rectangleArea_move(evt)">
<circle id="p1" cx="100" cy="350" r="4" fill="red"/>
<circle id="p2" cx="100" cy="150" r="4" fill="red"/>
<circle id="p3" cx="425" cy="350" r="4" fill="red"/>
<circle id="p4" cx="425" cy="150" r="4" fill="red"/>
<</g>
</g>
</svg>
