<svg width="700" height="600">
<g onmouseup="click=false">
<rect id="bkgrnd" x="0" y="0" width="700" height="600" style="fill:white"/> 
<text x="20" y="20" style="text-anchor:left" startOffset="0">Cubic Bezier : construction with barycenters</text>
<text x="10" y="40">Coefficients for barycenter : <tspan id="code"> 0.5 and 0.5</tspan></text>
<text x="10" y="60">Code SVG for cubic : <tspan id="code_c"> </tspan></text>
<text x="590" y="20" style="text-anchor:end" startOffset="0">Barycenters</text>
<text x="590" y="40" style="text-anchor:end" startOffset="0">Show</text>
<text x="590" y="60" style="text-anchor:end" startOffset="0">Hide</text>
<circle cx="547" cy="35" r="6" style="stroke:black;fill:white"/>
<circle cx="547" cy="55" r="6" style="stroke:black;fill:white"/>
<circle id="choix" cx="547" cy="35" r="4" style="stroke:black;fill:black"/>
<rect onclick="cubic_change(evt,0)" x="540" y="28" height="15" width="50" opacity="0"/>
<rect onclick="cubic_change(evt,1)" x="540" y="48" height="15" width="50" opacity="0"/>
<g id="traits" visibility="visible">
<path id="tang" d="M76 105 L167 198 L361 23 L485 102" style="stroke:green;stroke-dasharray:10 10;fill-opacity:0.3; fill:none"/>
<path id="tang2" d="M146 176 L316 62 L456 84" style="stroke:red;stroke-dasharray:10 10;fill-opacity:0.3; fill:none"/>
<path id="tang3" d="M277 87 L424 78" style="stroke:blue;stroke-dasharray:10 10;fill-opacity:0.3; fill:none"/>
<circle id="D1" cx="150" cy="200" r="3" style="stroke:green; fill:green"/>
<circle id="D2" cx="300" cy="100" r="3" style="stroke:green; fill:green"/>
<circle id="D3" cx="450" cy="200" r="3" style="stroke:green; fill:green"/>
<circle id="D4" cx="225" cy="150" r="3" style="stroke:fuchsia; fill:fuchsia"/>
<circle id="D5" cx="375" cy="150" r="3" style="stroke:fuchsia; fill:fuchsia"/>
</g>
<path id="courbe" d="M76 105C167,198 361,23 485,102" style="stroke:blue;fill-opacity:0.3; fill:none"/>
<path id="tang4" d="M76 105 L485 102" style="stroke:green;fill-opacity:0.3; fill:none"/>
<circle id="D6" cx="300" cy="150" r="3" style="stroke:blue; fill:blue"/>
<g onmousedown="click = true" onmousemove="cubic_move(evt)" >
<circle id="A1" cx="100" cy="300" r="4" style="stroke:red; fill:red"/>
<circle id="C1" cx="200" cy="100" r="4" style="stroke:red; fill:red"/>
<circle id="C2" cx="400" cy="400" r="4" style="stroke:red; fill:red"/>
<circle id="A2" cx="600" cy="300" r="4" style="stroke:red; fill:red"/>
<circle id="B1" cx="300" cy="300" r="4" style="stroke:red; fill:red"/>
</g>
</g>
</svg>
