<svg width="600" height="600">
<rect x="0" y="0" width="600" height="600" style="fill:white"/> 

<rect x="440" y="0" width="160" height="50" style="fill:white;fill-opacity:0"/>  
<path id="objet" d="M 276 204 515 122 550 290 328 297 z" style="stroke:blue;fill-opacity:0.3; fill:aqua"/>
<path id="image" d="M 275 168 397 25 483 120 343 208 z" style="stroke:red;fill-opacity:0.3; fill:maroon"/>
<circle id="A" cx="223" cy="158" r="3" style="stroke:red; fill:red"/>
<text x="223" y="158" dx="-15">C</text>
<circle id="E" cx="550" cy="290" r="3" style="stroke:red; fill:red"/>
<text x="550" y="290" dx="10">M</text>
<circle id="E1" cx="483" cy="120" r="3" style="stroke:blue; fill:blue"/>
<text x="483" y="120" dy="-10">M'</text>
<circle cx="572" cy="109" r="3" style="stroke:blue; fill:green"/>
<text x="572" y="109" dy="-10">m</text>
<path d="M550 290L223 158 572 109" style="stroke-dasharray:3 3;stroke:green;stroke-width:1;fill:none"/>
<path d="M550 290A353 353 0 0 0 572 109" style="stroke-dasharray:3 3;stroke:green;stroke-width:1;fill:none"/>

<text x="20" y="290" font-size="15" fill="black">Similarity
<tspan x="20" dy="1.5em">Center is C - ratio is k and angle A</tspan>
<tspan x="20" dy="1.5em">To draw M' image of M in similarity :</tspan>
<tspan x="20" dy="1.5em">- we draw m image of M in rotation with center in C and angle A</tspan>
<tspan x="20" dy="1.5em">- we transform m in uniform scale with center in C and k as ratio</tspan>
<tspan x="20" dy="1.5em">For our example angle is 30 degrees and k is 0.75</tspan>
<tspan x="20" dy="1.5em">Similarity preserve angle of shape and orientation</tspan>
<tspan x="20" dy="1.5em">To retrieve M from M', we use similarity with center in C, angle is - A and ratio 1 / k</tspan>
<tspan x="20" dy="1.5em">To composite two similarities with same center, we add angles and multiply ratios</tspan>
<tspan x="20" dy="1.5em">If centers are not in same point, as for rotations we can retrieve center of composite</tspan>
<tspan x="20" dy="1.5em">by construction or with matrix, finding the invariant point</tspan>


</text>
</svg>
