<svg width="700" height="600" viewBox="0 0 700 600">
<defs>
<pattern id="Pat01" width="25" height="25" patternUnits="userSpaceOnUse" preserveAspectRatio="xMidYMid meet">
	<rect width="25" height="25" fill="none" stroke="#000000" stroke-width="0.1"/>
</pattern>
<marker id="Marker01" viewBox="-15 -5 20 20" refX="0" refY="0" markerUnits="strokeWidth" markerWidth="10" markerHeight="6" orient="auto" preserveAspectRatio="xMidYMid meet">
    		    <path d="M -15 -5 L 0 0 L -15 5 z"/>
</marker>
<g id="system">
    <line marker-end="url(#Marker01)" x1="0" y1="0" x2="25" y2="0" style="stroke:black;stroke-width:2"/> 
    <line marker-end="url(#Marker01)" x1="0" y1="0" x2="0" y2="-25" style="stroke:black;stroke-width:2"/> 
    <circle cx="0" cy="0" r="3" stroke="black"/>
</g>
<clipPath id="cache">
<rect x="325" y="125" width="651" height="451"/>
</clipPath>
</defs>
<rect width="700" height="600" fill="white"/>
<rect x="325" y="125" width="351" height="451" fill="url(#Pat01)"/>
<use x="350" y="350" xlink:href="#system" fill="blue"/>
<line x1="325" y1="350" x2="675" y2="350" style="stroke:green;stroke-width:2"/> 
<path id="quadra" clip-path="url(#cache)" d="M25,-95494.93175481025 27.5,-93439.52753214944 30,-91416.93885209509 32.5,-89426.81912843112 34.99999999999994,-87468.82359054226 37.49999999999994,-85542.60928341397 39.99999999999994,-83647.8350676325 42.49999999999994,-81784.16161938489 44.99999999999994,-79951.25143045894 47.49999999999994,-78148.76880824321 49.999999999999886,-76376.37987572708 52.499999999999886,-74633.75257150066 54.999999999999886,-72920.55664975484 57.499999999999886,-71236.46368028126 59.999999999999886,-69581.14704847244 62.499999999999886,-67954.28195532156 64.99999999999988,-66355.54541742264 67.49999999999983,-64784.61626697043 69.99999999999983,-63241.17515176048 72.49999999999983,-61724.90453518909 74.99999999999983,-60235.48869625339 77.49999999999983,-58772.61372955123 79.99999999999983,-57335.967545281244 82.49999999999977,-55925.23986924286 84.99999999999977,-54540.122242836274 87.49999999999977,-53180.30802306243 89.99999999999977,-51845.49238252308 92.49999999999977,-50535.37230942076 94.99999999999974,-49249.646607558716 97.49999999999974,-47988.01589634104 99.99999999999974,-46750.18261077256 102.49999999999971,-45535.85100145889 104.99999999999971,-44344.72713460641 107.49999999999971,-43176.518892022286 109.99999999999969,-42030.93597111444 112.49999999999969,-40907.689884891595 114.99999999999969,-39806.49396196323 117.49999999999966,-38727.06334653961 119.99999999999966,-37669.114998431745 122.49999999999966,-36632.36769305147 124.99999999999966,-35616.54202141134 127.49999999999963,-34621.36039012472 129.99999999999963,-33646.54702140574 132.49999999999963,-32691.827953069303 134.9999999999996,-31756.931038531085 137.4999999999996,-30841.58594680754 139.9999999999996,-29945.524162515892 142.49999999999957,-29068.47898587415 144.99999999999957,-28210.185532701074 147.49999999999957,-27370.380734416227 149.99999999999954,-26548.80333803992 152.49999999999954,-25745.19390619327 154.99999999999954,-24959.294817098132 157.49999999999952,-24190.85026457716 159.99999999999952,-23439.606258053772 162.49999999999952,-22705.310622552173 164.9999999999995,-21987.712998697323 167.4999999999995,-21286.564842714964 169.9999999999995,-20601.619426431625 172.4999999999995,-19932.63183727459 174.99999999999946,-19279.358978271932 177.49999999999946,-18641.55956805249 179.99999999999946,-18018.994140845876 182.49999999999943,-17411.42504648249 184.99999999999943,-16818.61645039349 187.49999999999943,-16240.334333610815 189.9999999999994,-15676.346492767177 192.4999999999994,-15126.422540096067 194.9999999999994,-14590.333903431746 197.49999999999937,-14067.85382620925 199.99999999999937,-13558.757367464391 202.49999999999937,-13062.821401833753 204.99999999999937,-12579.824619554694 207.49999999999935,-12109.547526465348 209.99999999999935,-11651.772444004625 212.49999999999935,-11206.283509212204 214.99999999999932,-10772.866674728547 217.49999999999932,-10351.309708794879 219.99999999999932,-9941.40219525321 222.49999999999932,-9542.935533546317 224.9999999999993,-9155.702938717757 227.49999999999926,-8779.499441411855 229.99999999999926,-8414.121887873712 232.49999999999926,-8059.368939949212 234.99999999999926,-7715.041075085002 237.49999999999926,-7380.940586328509 239.99999999999923,-7056.8715823279335 242.49999999999923,-6742.639987332248 244.9999999999992,-6438.053541191201 247.4999999999992,-6142.921799355318 249.9999999999992,-5857.056132875895 252.4999999999992,-5580.269728405005 254.9999999999992,-5312.377588195492 257.4999999999992,-5053.196530100979 259.9999999999992,-4802.545187575858 262.4999999999992,-4560.244009675303 264.9999999999992,-4326.1152610552535 267.4999999999992,-4099.983021972427 269.9999999999992,-3881.6731882843196 272.4999999999992,-3671.013471449194 274.9999999999992,-3467.8333985260933 277.4999999999992,-3271.964312174832 279.9999999999992,-3083.2393706560006 282.4999999999992,-2901.493547830961 284.9999999999992,-2726.563633161854 287.4999999999992,-2558.2882317115895 289.9999999999992,-2396.507764143857 292.49999999999926,-2241.064466723116 294.99999999999926,-2091.802391314603 297.49999999999926,-1948.5674053843276 299.99999999999926,-1811.207191999075 302.49999999999926,-1679.5712498264026 304.99999999999926,-1553.5108931346442 307.49999999999926,-1432.879251792907 309.99999999999926,-1317.5312712710724 312.49999999999926,-1207.3237126397971 314.99999999999926,-1102.1151525705108 317.49999999999926,-1001.7659833354185 319.99999999999926,-906.1384128074994 322.49999999999926,-815.0964644605065 324.99999999999926,-728.5059773689679 327.49999999999926,-646.2346062081856 329.99999999999926,-568.1518212542361 332.49999999999926,-494.12890838397027 334.99999999999926,-424.0389690750127 337.49999999999926,-357.75692040576336 339.99999999999926,-295.1594950553957 342.49999999999926,-236.12524130385816 344.99999999999926,-180.53452303187294 347.49999999999926,-128.26951972093707 349.99999999999926,-79.21422645332166 352.49999999999926,-33.25445391207228 354.99999999999926,9.722171618991353 357.49999999999926,49.82620825527499 359.99999999999926,87.16639851141002 362.49999999999926,121.84966930125367 364.99999999999926,153.9811319378887 367.49999999999926,183.66408213362354 369.99999999999926,210.9999999999923 372.49999999999926,236.0885500477546 374.99999999999926,259.02758118689615 377.49999999999926,279.91312672662786 379.99999999999926,298.8394043753863 382.49999999999926,315.89881624083415 384.99999999999926,331.18194882985915 387.49999999999926,344.7775730485753 389.99999999999926,356.7726442023218 392.49999999999926,367.25230199566363 394.99999999999926,376.29987053239153 397.49999999999926,383.9968583155221 399.99999999999926,390.4229582472968 402.49999999999926,395.65604762918366 404.99999999999926,399.7721881618756 407.49999999999926,402.84562594529217 409.9999999999993,404.94879147857796 412.4999999999993,406.1522996601027 414.9999999999993,406.5249497874624 417.4999999999993,406.1337255574791 419.9999999999993,405.04379506619983 422.4999999999993,403.31851080889765 424.9999999999993,401.0194096800709 427.4999999999993,398.206212973444 429.9999999999993,394.93682638196674 432.4999999999993,391.2673399978146 434.9999999999993,387.2520283123889 437.4999999999993,382.94335021631633 439.9999999999993,378.3919489994498 442.4999999999993,373.6466523508674 444.9999999999993,368.7544723588723 447.4999999999993,363.76060551099476 449.9999999999993,358.7084326939897 452.4999999999993,353.63951919383777 454.9999999999993,348.5936146957461 457.4999999999993,343.60865328414604 459.9999999999993,338.7207534426955 462.4999999999993,333.9642180542781 464.99999999999926,329.37153440100343 467.49999999999926,324.97337416420526 469.99999999999926,320.7985934244447 472.49999999999926,316.874232661507 474.99999999999926,313.2255167544048 477.4999999999992,309.87585498137616 479.9999999999992,306.8468410198817 482.4999999999992,304.1582529466125 484.9999999999992,301.82805323748124 487.4999999999992,299.8723887676291 489.9999999999992,298.3055908114227 492.4999999999992,297.14017504245043 494.9999999999992,296.3868415335297 497.4999999999992,296.05447475670655 499.99999999999914,296.15014358324663 502.49999999999914,296.6791012836441 504.99999999999914,297.644785527618 507.4999999999991,299.0488183841179 509.9999999999991,300.8910063213082 512.4999999999991,303.16934020658897 514.9999999999991,305.8799953065839 517.4999999999991,309.01733128713743 519.9999999999991,312.57389221332505 522.4999999999991,316.5404065494463 524.9999999999991,320.9057871590267 527.4999999999991,325.657131304814 529.9999999999991,330.77972064878685 532.4999999999991,336.25702125214536 534.9999999999991,342.0706835753207 537.4999999999991,348.2005424779628 539.999999999999,354.6246172189483 542.499999999999,361.31911145638673 544.999999999999,368.2584132476072 547.499999999999,375.41509504916126 549.999999999999,382.7599137168362 552.499999999999,390.26181050563616 554.999999999999,397.8879110697917 557.499999999999,405.6035254627651 559.999999999999,413.37214813723824 562.4999999999989,421.15545794512445 564.9999999999989,428.9133181375561 567.4999999999989,436.6037763648932 569.9999999999989,444.183064676725 572.4999999999989,451.6055995218628 574.9999999999989,458.8239817483426 577.4999999999989,465.7889966034346 579.9999999999989,472.4496137336188 582.4999999999989,478.7529871846181 584.9999999999989,484.6444554013721 587.4999999999989,490.0675412280434 589.9999999999989,494.9639519080249 592.4999999999989,499.27357908393753 594.9999999999989,502.9344987976194 597.4999999999989,505.88297149014414 599.9999999999989,508.0534420018046 602.4999999999989,509.3785395721254 604.9999999999987,509.78907783984357 607.4999999999987,509.21405484293905 609.9999999999987,507.58065301859636 612.4999999999987,504.8142392032566 614.9999999999987,500.83836463255545 617.4999999999987,495.5747649413722 619.9999999999987,488.9433601638067 622.4999999999987,480.86225473318 624.9999999999986,471.2477374820529 627.4999999999986,460.0142816421893 629.9999999999986,447.0745448446023 632.4999999999986,432.33936911951923 634.9999999999986,415.7177808963815 637.4999999999986,397.11699100388875 639.9999999999986,376.4423946699323 642.4999999999986,353.597571521638 644.9999999999986,328.48428558538233 647.4999999999986,301.0024852867253 649.9999999999986,271.0503034504902 652.4999999999986,238.52405730070947 654.9999999999986,203.3182484606356 657.4999999999986,165.32556295275205 659.9999999999986,124.43687119877955 662.4999999999986,80.5412280196399 664.9999999999986,33.525872635506346 667.4999999999986,-16.723771334236062 669.9999999999986,-70.32409587097714 672.4999999999985,-127.39330855688075 674.9999999999985,-188.05143257487282 " style="stroke:blue;stroke-width:2;fill:none"/> 
<text id="a" style="text-anchor:middle;font-size:15;fill:blue" x="399" y="388" dx="-20" dy="-5" startOffset="0">A</text>
<text id="b" style="text-anchor:middle;font-size:15;fill:blue" x="486" y="301" dx="-20" dy="-5" startOffset="0">B</text>
<text id="c" style="text-anchor:middle;font-size:15;fill:blue" x="370" y="211" dx="-20" dy="-5" startOffset="0">C</text>
<text id="d" style="text-anchor:middle;font-size:15;fill:blue" x="566" y="432" dx="-20" dy="-5" startOffset="0">D</text>
<text id="e" style="text-anchor:middle;font-size:15;fill:blue" x="637" y="401" dx="-20" dy="-5" startOffset="0">E</text>
<text x="340" y="20" font-size="11" startOffset="0">Equation : <tspan id="u1">0.03</tspan> * x<tspan baseline-shift="super" font-size="9">4</tspan> <tspan id="v1">-0.755</tspan> * x<tspan baseline-shift="super" font-size="9">3</tspan> <tspan id="w1"> + 6.191</tspan> * x<tspan baseline-shift="super" font-size="9">2</tspan> <tspan id="z1">-18.995</tspan> * x <tspan id="t1"> + 17.169</tspan> = 0</text>
<text x="420" y="40" font-size="15" startOffset="0">Solution for x : <tspan id="sol1" fill="blue">7.528</tspan></text>
<text x="420" y="60" font-size="15" startOffset="0">Solution for x : <tspan id="sol2" fill="blue">11.715</tspan></text>
<text x="420" y="80" font-size="15" startOffset="0">Solution for x : <tspan id="sol3" fill="blue">1.542</tspan></text>
<text x="420" y="100" font-size="15" startOffset="0">Solution for x : <tspan id="sol4" fill="blue">4.172</tspan></text>
<circle id="p6" cx="538.212" cy="350" r="4" fill="blue"/>
<circle id="p7" cx="642.873" cy="350" r="4" fill="blue"/>
<circle id="p8" cx="388.549" cy="350" r="4" fill="blue"/>
<circle id="p9" cx="454.301" cy="350" r="4" fill="blue"/>
<text id="m" style="text-anchor:middle;font-size:15;fill:blue" x="538.212" y="350" dx="-20" dy="-5" startOffset="0">M</text>
<text id="n" style="text-anchor:middle;font-size:15;fill:blue" x="642.873" y="350" dx="-20" dy="-5" startOffset="0">N</text>
<text id="p" style="text-anchor:middle;font-size:15;fill:blue" x="388.549" y="350" dx="-20" dy="-5" startOffset="0">P</text>
<text id="q" style="text-anchor:middle;font-size:15;fill:blue" x="454.301" y="350" dx="-20" dy="-5" startOffset="0">Q</text>
<rect x="325" y="125" width="351" height="451" fill="yellow" fill-opacity="0.1"/>
<circle id="p1" cx="399" cy="388" r="4" fill="red"/>
<circle id="p2" cx="486" cy="301" r="4" fill="red"/>
<circle id="p3" cx="370" cy="211" r="4" fill="red"/>
<circle id="p4" cx="566" cy="432" r="4" fill="red"/>
<circle id="p5" cx="637" cy="401" r="4" fill="red"/>
<text x="20" y="20" font-size="14" fill="black">Solve a * x<tspan baseline-shift="super" font-size="8">4</tspan> + b * x<tspan baseline-shift="super" font-size="8">3</tspan> + c * x<tspan baseline-shift="super" font-size="8">2</tspan> + d * x + e = 0
<tspan x="20" dy="1.5em">We suppose that a is not equal to 0, we divise all terms by a</tspan>
<tspan x="20" dy="1.5em">x<tspan baseline-shift="super" font-size="8">4</tspan> + b' * x<tspan baseline-shift="super" font-size="8">3</tspan> + c' * x<tspan baseline-shift="super" font-size="8">2</tspan> + d' * x + e = 0</tspan>
<tspan x="20" dy="1.5em">We use y solution of equation of degree 3</tspan>
<tspan x="20" dy="1.5em" fill="blue">y<tspan baseline-shift="super" font-size="8">3</tspan> - b' * y<tspan baseline-shift="super" font-size="8">2</tspan> + (a' * c' - 4 * d') * y + 4 * b' * d' - a'<tspan baseline-shift="super" font-size="8">2</tspan> * d' - c'<tspan baseline-shift="super" font-size="8">2</tspan> = 0</tspan>
<tspan x="20" dy="1.5em">We define R by R<tspan baseline-shift="super" font-size="8">2</tspan> = a'<tspan baseline-shift="super" font-size="8">2</tspan> / 4 - b' + y</tspan>
<tspan x="20" dy="1.5em">If R<tspan baseline-shift="super" font-size="8">2</tspan> is &gt; 0</tspan>
<tspan x="20" dy="1.5em">We define D by D<tspan baseline-shift="super" font-size="8">2</tspan> = 3 * a'<tspan baseline-shift="super" font-size="8">2</tspan> / 4 - R<tspan baseline-shift="super" font-size="8">2</tspan> - 2 * b'</tspan>
<tspan x="20" dy="1.5em">+ (4 * a' * b' - 8 * c' - a'<tspan baseline-shift="super" font-size="8">3</tspan>) / (4 * R)</tspan>
<tspan x="20" dy="1.5em">We define E by E<tspan baseline-shift="super" font-size="8">2</tspan> = 3 * a'<tspan baseline-shift="super" font-size="8">2</tspan> / 4 - R<tspan baseline-shift="super" font-size="8">2</tspan> - 2 * b'</tspan>
<tspan x="20" dy="1.5em">- (4 * a' * b' - 8 * c' - a'<tspan baseline-shift="super" font-size="8">3</tspan>) / (4 * R)</tspan>
<tspan x="20" dy="1.5em">If R<tspan baseline-shift="super" font-size="8">2</tspan> is equal to 0</tspan>
<tspan x="20" dy="1.5em">We define D by D<tspan baseline-shift="super" font-size="8">2</tspan> = 3 * a'<tspan baseline-shift="super" font-size="8">2</tspan> / 4 - 2 * b'</tspan>
<tspan x="20" dy="1.5em">+ 2 * . y<tspan baseline-shift="super" font-size="8">2</tspan> - 4 * d'</tspan>
<tspan x="20" dy="1.5em">We define E by E<tspan baseline-shift="super" font-size="8">2</tspan> = 3 * a'<tspan baseline-shift="super" font-size="8">2</tspan> / 4 - 2 * b'</tspan>
<tspan x="20" dy="1.5em">- 2 * . y<tspan baseline-shift="super" font-size="8">2</tspan> - 4 * d'</tspan>
<tspan x="20" dy="1.5em">If R<tspan baseline-shift="super" font-size="8">2</tspan> is &lt; 0</tspan>
<tspan x="20" dy="1.5em" fill="blue">There is no real solution for x</tspan>
<tspan x="20" dy="1.5em">Number of solutions depend of sign of D<tspan baseline-shift="super" font-size="8">2</tspan> and E<tspan baseline-shift="super" font-size="8">2</tspan></tspan>

<tspan x="20" dy="1.5em" fill="blue">First group of solutions is - a' / 4 + R / 2 - D / 2</tspan>
<tspan x="20" dy="1.5em" fill="blue">and - a' / 4 + R / 2 + D / 2</tspan>
<tspan x="20" dy="1.5em" fill="blue">Second group is - a' / 4 + R / 2 - E / 2</tspan>
<tspan x="20" dy="1.5em" fill="blue">and - a' / 4 + R / 2 + E / 2</tspan>
</text>
<path d="M47 320l5 15 5 -15h65" fill="none" stroke="black"/>
<path d="M50 278l5 15 5 -15h65" fill="none" stroke="black"/>


</svg>
