<svg width="700" height="600" viewBox="0 0 700 600">
<defs>
<pattern id="Pat01" width="25" height="25" patternUnits="userSpaceOnUse" preserveAspectRatio="xMidYMid meet">
	<rect width="25" height="25" fill="none" stroke="#000000" stroke-width="0.1"/>
</pattern>
<marker id="Marker01" viewBox="-15 -5 20 20" refX="0" refY="0" 
            	markerUnits="strokeWidth" markerWidth="10" markerHeight="6" 
	        orient="auto">
    		    <path d="M -15 -5 L 0 0 L -15 5 z" />
</marker>
<g id="system">
    <line marker-end="url(#Marker01)" x1="0" y1="0" x2="25" y2="0" style="stroke:black;stroke-width:2"/> 
    <line marker-end="url(#Marker01)" x1="0" y1="0" x2="0" y2="-25" style="stroke:black;stroke-width:2"/> 
    <circle cx="0" cy="0" r="3" stroke="black"/>
</g><clipPath id="cache">
<rect x="325" y="125" width="351" height="451"/>
</clipPath>
</defs>
<rect width="700" height="600" fill="white"/>
<rect x="325" y="125" width="351" height="451" fill="url(#Pat01)"/>
<line x1="325" y1="350" x2="675" y2="350" style="stroke:green;stroke-width:2"/> 
<use x="350" y="350" xlink:href="#system" fill="blue"/>
<path id="cubic" clip-path="url(#cache)" d="M25,-30636.884374535002 27.5,-30135.0082508496 30,-29638.53271612298 32.5,-29147.428835358238 34.99999999999994,-28661.66767355846 37.49999999999994,-28181.22029572674 39.99999999999994,-27706.05776686618 42.49999999999994,-27236.15115197986 44.99999999999994,-26771.471516070876 47.49999999999994,-26311.98992414232 49.999999999999886,-25857.677441197283 52.499999999999886,-25408.505132238868 54.999999999999886,-24964.444062270144 57.499999999999886,-24525.465296294223 59.999999999999886,-24091.539899314186 62.499999999999886,-23662.63893633313 64.99999999999988,-23238.733472354142 67.49999999999983,-22819.794572380324 69.99999999999983,-22405.793301414756 72.49999999999983,-21996.70072446054 74.99999999999983,-21592.48790652076 77.49999999999983,-21193.125912598512 79.99999999999983,-20798.585807696883 82.49999999999977,-20408.83865681897 84.99999999999977,-20023.85552496786 87.49999999999977,-19643.607477146652 89.99999999999977,-19268.065578358437 92.49999999999977,-18897.200893606303 94.99999999999974,-18530.984487893336 97.49999999999974,-18169.387426222638 99.99999999999974,-17812.380773597302 102.49999999999971,-17459.93559502041 104.99999999999971,-17112.02295549506 107.49999999999971,-16768.613920024345 109.99999999999969,-16429.67955361136 112.49999999999969,-16095.190921259181 114.99999999999969,-15765.11908797092 117.49999999999966,-15439.435118749654 119.99999999999966,-15118.110078598481 122.49999999999966,-14801.115032520496 124.99999999999966,-14488.421045518782 127.49999999999963,-14179.99918259644 129.99999999999963,-13875.820508756558 132.49999999999963,-13575.856089002227 134.9999999999996,-13280.076988336541 137.4999999999996,-12988.454271762588 139.9999999999996,-12700.959004283464 142.49999999999957,-12417.562250902261 144.99999999999957,-12138.235076622068 147.49999999999957,-11862.948546445977 149.99999999999954,-11591.673725377082 152.49999999999954,-11324.381678418472 154.99999999999954,-11061.043470573242 157.49999999999952,-10801.630166844484 159.99999999999952,-10546.112832235287 162.49999999999952,-10294.462531748746 164.9999999999995,-10046.65033038795 167.4999999999995,-9802.647293155992 169.9999999999995,-9562.424485055962 172.4999999999995,-9325.952971090957 174.99999999999946,-9093.203816264067 177.49999999999946,-8864.14808557838 179.99999999999946,-8638.75684403699 182.49999999999943,-8417.00115664299 184.99999999999943,-8198.852088399471 187.49999999999943,-7984.280704309525 189.9999999999994,-7773.258069376245 192.4999999999994,-7565.755248602722 194.9999999999994,-7361.743306992046 197.49999999999937,-7161.1933095473105 199.99999999999937,-6964.076321271609 202.49999999999937,-6770.363407168032 204.99999999999937,-6580.025632239671 207.49999999999935,-6393.034061489617 209.99999999999935,-6209.359759920963 212.49999999999935,-6028.973792536802 214.99999999999932,-5851.847224340223 217.49999999999932,-5677.951120334321 219.99999999999932,-5507.256545522187 222.49999999999932,-5339.734564906911 224.9999999999993,-5175.356243491587 227.49999999999926,-5014.092646279305 229.99999999999926,-4855.914838273158 232.49999999999926,-4700.793884476239 234.99999999999926,-4548.700849891638 237.49999999999926,-4399.606799522448 239.99999999999923,-4253.482798371759 242.49999999999923,-4110.299911442665 244.9999999999992,-3970.029203738258 247.4999999999992,-3832.641740261629 249.9999999999992,-3698.10858601587 252.4999999999992,-3566.4008060040714 254.9999999999992,-3437.4894652293264 257.4999999999992,-3311.3456286947266 259.9999999999992,-3187.9403614033663 262.4999999999992,-3067.2447283583337 264.9999999999992,-2949.229794562723 267.4999999999992,-2833.8666250196243 269.9999999999992,-2721.1262847321313 272.4999999999992,-2610.9798387033356 274.9999999999992,-2503.398351936328 277.4999999999992,-2398.3528894342003 279.9999999999992,-2295.814516200046 282.4999999999992,-2195.7542972369556 284.9999999999992,-2098.1432975480215 287.4999999999992,-2002.9525821363354 289.9999999999992,-1910.1532160049892 292.49999999999926,-1819.7162641570748 294.99999999999926,-1731.612791595684 297.49999999999926,-1645.8138633239086 299.99999999999926,-1562.290544344841 302.49999999999926,-1481.0138996615724 304.99999999999926,-1401.9549942771952 307.49999999999926,-1325.0848931948005 309.99999999999926,-1250.374661417481 312.49999999999926,-1177.7953639483284 314.99999999999926,-1107.3180657904342 317.49999999999926,-1038.913831946891 319.99999999999926,-972.5537274207897 322.49999999999926,-908.2088172152228 324.99999999999926,-845.850166333282 327.49999999999926,-785.4488397780592 329.99999999999926,-726.9759025526464 332.49999999999926,-670.4024196601352 334.99999999999926,-615.6994561036179 337.49999999999926,-562.838076886186 339.99999999999926,-511.78934701093123 342.49999999999926,-462.52433148094576 344.99999999999926,-415.0140952993215 347.49999999999926,-369.2297034691503 349.99999999999926,-325.1422209935238 352.49999999999926,-282.72271287553417 354.99999999999926,-241.94224411827304 357.49999999999926,-202.7718797248324 359.99999999999926,-165.18268469830411 362.49999999999926,-129.14572404178006 364.99999999999926,-94.6320627583521 367.49999999999926,-61.6127658511121 369.99999999999926,-30.058898323151936 372.49999999999926,0.05847482243649438 374.99999999999926,28.768288582561297 377.49999999999926,56.09947795413069 379.99999999999926,82.08097793405284 382.49999999999926,106.74172351923579 384.99999999999926,130.11064970658754 387.49999999999926,152.2166914930164 389.99999999999926,173.08878387543044 392.49999999999926,192.7558618507378 394.99999999999926,211.24686041584653 397.49999999999926,228.59071456766475 399.99999999999926,244.81635930310085 402.49999999999926,259.9527296190626 404.99999999999926,274.02876051245834 407.49999999999926,287.07338698019623 409.9999999999993,299.11554401918414 412.4999999999993,310.1841666263305 414.9999999999993,320.30818979854325 417.4999999999993,329.5165485327306 419.9999999999993,337.8381778258006 422.4999999999993,345.30201267466157 424.9999999999993,351.93698807622144 427.4999999999993,357.7720390273883 429.9999999999993,362.8361005250705 432.4999999999993,367.158107566176 434.9999999999993,370.76699514761293 437.4999999999993,373.69169826628956 439.9999999999993,375.9611519191136 442.4999999999993,377.6042911029936 444.9999999999993,378.6500508148377 447.4999999999993,379.12736605155396 449.9999999999993,379.0651718100504 452.4999999999993,378.4924030872354 454.9999999999993,377.4379948800165 457.4999999999993,375.9308821853024 459.9999999999993,374.0000000000009 462.4999999999993,371.6742833210203 464.99999999999926,368.9826671452689 467.49999999999926,365.9540864696545 469.99999999999926,362.6174762910853 472.49999999999926,359.00177160646916 474.99999999999926,355.1359074127152 477.4999999999992,351.04881870673063 479.9999999999992,346.76944048542333 482.4999999999992,342.3267077457023 484.9999999999992,337.7495554844753 487.4999999999992,333.0669186986505 489.9999999999992,328.30773238513586 492.4999999999992,323.5009315408394 494.9999999999992,318.6754511626699 497.4999999999992,313.86022624753485 499.99999999999914,309.0841917923424 502.49999999999914,304.3762827940011 504.99999999999914,299.765434249419 507.4999999999991,295.28058115550345 509.9999999999991,290.9506585091634 512.4999999999991,286.80460130730694 514.9999999999991,282.871344546842 517.4999999999991,279.17982322467696 519.9999999999991,275.7589723377194 522.4999999999991,272.63772688287736 524.9999999999991,269.8450218570599 527.4999999999991,267.40979225717433 529.9999999999991,265.36097308012927 532.4999999999991,263.7274993228328 534.9999999999991,262.53830598219173 537.4999999999991,261.8223280551163 539.999999999999,261.60850053851413 542.499999999999,261.9257584292921 544.999999999999,262.80303672435963 547.499999999999,264.269270420624 549.999999999999,266.3533945149936 552.499999999999,269.08434400437715 554.999999999999,272.49105388568114 557.499999999999,276.60245915581606 559.999999999999,281.4474948116889 562.4999999999989,287.05509585020615 564.9999999999989,293.45419726827833 567.4999999999989,300.67373406281314 569.9999999999989,308.74264123071776 572.4999999999989,317.6898537689016 574.9999999999989,327.5443066742721 577.4999999999989,338.3349349437342 579.9999999999989,350.09067357420315 582.4999999999989,362.84045756258115 584.9999999999989,376.6132219057784 587.4999999999989,391.4379016007029 589.9999999999989,407.34343164426326 592.4999999999989,424.35874703336685 594.9999999999989,442.5127827649209 597.4999999999989,461.83447383583563 599.9999999999989,482.3527552430189 602.4999999999989,504.0965619833759 604.9999999999987,527.094829053819 607.4999999999987,551.3764914512546 609.9999999999987,576.9704841725886 612.4999999999987,603.9057422147341 614.9999999999987,632.2112005745919 617.4999999999987,661.915794249079 619.9999999999987,693.048458235096 622.4999999999987,725.6381275295556 624.9999999999986,759.7137371293616 627.4999999999986,795.3042220314262 629.9999999999986,832.438517232659 632.4999999999986,871.1455577299621 634.9999999999986,911.4542785202492 637.4999999999986,953.393614600424 639.9999999999986,996.9925009673961 642.4999999999986,1042.2798726180763 644.9999999999986,1089.2846645493666 647.4999999999986,1138.0358117581854 649.9999999999986,1188.5622492414318 652.4999999999986,1240.8929119960166 654.9999999999986,1295.0567350188466 657.4999999999986,1351.0826533068316 659.9999999999986,1408.9996018568815 662.4999999999986,1468.8365156659006 664.9999999999986,1530.6223297307997 667.4999999999986,1594.385979048487 669.9999999999986,1660.156398615867 672.4999999999985,1727.962523429854 674.9999999999985,1797.8332884873498 " style="stroke:blue;stroke-width:2;fill:none"/> 
<text id="a" style="text-anchor:middle;font-size:15;fill:blue" x="460" y="374" dx="-20" dy="-5" startOffset="0">A</text>
<text id="b" style="text-anchor:middle;font-size:15;fill:blue" x="513" y="286" dx="-20" dy="-5" startOffset="0">B</text>
<text id="c" style="text-anchor:middle;font-size:15;fill:blue" x="401" y="251" dx="-20" dy="-5" startOffset="0">C</text>
<text id="d" style="text-anchor:middle;font-size:15;fill:blue" x="599" y="474" dx="-20" dy="-5" startOffset="0">D</text>
<text x="420" y="20" font-size="15" startOffset="0">Equation :</text>
<text x="420" y="40" font-size="15" startOffset="0"><tspan id="u1">-0.19</tspan> * x<tspan baseline-shift="super" font-size="9">3</tspan> <tspan id="v1"> + 3.34</tspan> * x<tspan baseline-shift="super" font-size="9">2</tspan> <tspan id="w1">-17.3</tspan> * x <tspan id="z1"> + 27.01</tspan> = 0</text>
<text x="420" y="60" font-size="15" startOffset="0">Solution for x : <tspan id="sol1" fill="blue">9.199</tspan></text>
<text x="420" y="80" font-size="15" startOffset="0">Solution for x : <tspan id="sol2" fill="blue">2.97</tspan></text>
<text x="420" y="100" font-size="15" startOffset="0">Solution for x : <tspan id="sol3" fill="blue">5.125</tspan></text>
<circle id="p5" cx="579.981" cy="350" r="4" fill="blue"/>
<circle id="p6" cx="424.238" cy="350" r="4" fill="blue"/>
<circle id="p7" cx="478.123" cy="350" r="4" fill="blue"/>
<text id="m" style="text-anchor:middle;font-size:15;fill:blue" x="579.981" y="350" dx="-20" dy="-5" startOffset="0">M</text>
<text id="n" style="text-anchor:middle;font-size:15;fill:blue" x="424.238" y="350" dx="-20" dy="-5" startOffset="0">N</text>
<text id="p" style="text-anchor:middle;font-size:15;fill:blue" x="478.123" y="350" dx="-20" dy="-5" startOffset="0">P</text>
<rect x="325" y="125" width="351" height="451" fill="yellow" fill-opacity="0.1"/>
<circle id="p1" cx="460" cy="374" r="4" fill="red"/>
<circle id="p2" cx="513" cy="286" r="4" fill="red"/>
<circle id="p3" cx="401" cy="251" r="4" fill="red"/>
<circle id="p4" cx="599" cy="474" r="4" fill="red"/>
<text x="20" y="20" font-size="14" fill="black">Solve a * x<tspan baseline-shift="super" font-size="8">3</tspan> + b * x<tspan baseline-shift="super" font-size="8">2</tspan> + c * x + d = 0
<tspan x="20" dy="1.5em">We suppose that a is not equal to 0, we divise all terms by a</tspan>
<tspan x="20" dy="1.5em">x<tspan baseline-shift="super" font-size="8">3</tspan> + b' * x<tspan baseline-shift="super" font-size="8">2</tspan> + c' * x + d' = 0</tspan>
<tspan x="20" dy="1.5em">We replace x by x - b' / 3 to eliminate term of second degree</tspan>
<tspan x="20" dy="1.5em">x<tspan baseline-shift="super" font-size="8">3</tspan> + p * x + q = 0</tspan>
<tspan x="20" dy="1.5em">We know particular equation of this type :</tspan>
<tspan x="20" dy="1.5em">x<tspan baseline-shift="super" font-size="8">3</tspan> - 3 * b * c * x + b<tspan baseline-shift="super" font-size="8">3</tspan> + c<tspan baseline-shift="super" font-size="8">3</tspan> is divisible by x + b + c</tspan>
<tspan x="20" dy="1.5em" fill="blue">We solve - 3 * b * c = p and b<tspan baseline-shift="super" font-size="8">3</tspan> + c<tspan baseline-shift="super" font-size="8">3</tspan> = q</tspan>
<tspan x="20" dy="1.5em" fill="blue">We get b<tspan baseline-shift="super" font-size="8">6</tspan> - b<tspan baseline-shift="super" font-size="8">3</tspan> * q - p<tspan baseline-shift="super" font-size="8">3</tspan> / 27 = 0</tspan>
<tspan x="20" dy="1.5em">All depend of sign of D = q<tspan baseline-shift="super" font-size="8">2</tspan> / 4 + p<tspan baseline-shift="super" font-size="8">3</tspan> / 27</tspan>
<tspan x="20" dy="1.5em">If D is positive we have two solutions for b<tspan baseline-shift="super" font-size="8">3</tspan></tspan>
<tspan x="20" dy="1.5em" fill="blue">b<tspan baseline-shift="super" font-size="8">3</tspan> = - q / 2 - . D and b<tspan baseline-shift="super" font-size="8">3</tspan> = - q / 2 + . D</tspan>
<tspan x="20" dy="1.5em" fill="blue">x<tspan baseline-shift="sub" font-size="8">1</tspan> = ( - q / 2 - . D )<tspan baseline-shift="super" font-size="8">1/3</tspan> + ( - q / 2 + . D )<tspan baseline-shift="super" font-size="8">1/3</tspan></tspan>
<tspan x="20" dy="1.5em">is single solution for equation</tspan>
<tspan x="20" dy="1.5em">If D is equal to 0, curve is tangent to x axis</tspan>
<tspan x="20" dy="1.5em" fill="blue">x<tspan baseline-shift="sub" font-size="8">12</tspan> = ( b / 2 )<tspan baseline-shift="super" font-size="8">1/3</tspan> and x<tspan baseline-shift="sub" font-size="8">3</tspan> = - 2 * ( b / 2 )<tspan baseline-shift="super" font-size="8">1/3</tspan></tspan>
<tspan x="20" dy="1.5em">If D is negative, we have three solutions</tspan>
<tspan x="20" dy="1.5em">We use complex numbers</tspan>
<tspan x="20" dy="1.5em" fill="blue">b<tspan baseline-shift="super" font-size="8">3</tspan> = - q / 2 + i * . - D = r * exp( i * A )</tspan>
<tspan x="20" dy="1.5em">With cubic root, we get three real solutions for x</tspan>
<tspan x="20" dy="1.5em" fill="blue">x<tspan baseline-shift="sub" font-size="8">1</tspan> = 2 * ( r )<tspan baseline-shift="super" font-size="8">1/3</tspan> * cos ( A / 3 )</tspan>
<tspan x="20" dy="1.5em" fill="blue">x<tspan baseline-shift="sub" font-size="8">2</tspan> = - r<tspan baseline-shift="super" font-size="8">1/3</tspan> * ( cos ( A / 3 ) + . 3 * sin ( A / 3 ) )</tspan>
<tspan x="20" dy="1.5em" fill="blue">x<tspan baseline-shift="sub" font-size="8">1</tspan> = - r<tspan baseline-shift="super" font-size="8">1/3</tspan> * ( cos ( A / 3 ) - . 3 * sin ( A / 3 ) )</tspan>
<tspan x="20" dy="1.5em">To write solutions for original equation</tspan>
<tspan x="20" dy="1.5em">we add - b' / 3 or - b / ( 3 * a )</tspan>
</text>
<path d="M222 236l5 15 5 -15h20" fill="none" stroke="blue"/>
<path d="M93 236l5 15 5 -15h20" fill="none" stroke="blue"/>
<path d="M215 258l5 15 5 -15h15" fill="none" stroke="blue"/>
<path d="M101 257l5 15 5 -15h15" fill="none" stroke="blue"/>
<path d="M114 383l5 15 5 -15h15" fill="none" stroke="blue"/>
<path d="M173 467l5 15 5 -15h10" fill="none" stroke="blue"/>
<path d="M176 447l5 15 5 -15h10" fill="none" stroke="blue"/>


</svg>
