<svg width="700" height="600" viewBox="0 0 700 600">
<defs>
<pattern id="Pat01" width="25" height="25" patternUnits="userSpaceOnUse" preserveAspectRatio="xMidYMid meet">
	<rect width="25" height="25" fill="none" stroke="#000000" stroke-width="0.1"/>
</pattern>
<marker id="Marker01" viewBox="-15 -5 20 20" refX="0" refY="0" markerUnits="strokeWidth" markerWidth="10" markerHeight="6" orient="auto" preserveAspectRatio="xMidYMid meet">
    		    <path d="M -15 -5 L 0 0 L -15 5 z"/>
</marker>
<g id="system">
    <line marker-end="url(#Marker01)" x1="0" y1="0" x2="25" y2="0" style="stroke:black;stroke-width:2"/> 
    <line marker-end="url(#Marker01)" x1="0" y1="0" x2="0" y2="-25" style="stroke:black;stroke-width:2"/> 
    <circle cx="0" cy="0" r="3" stroke="black"/>
</g>
<clipPath id="cache">
<rect x="325" y="125" width="351" height="451"/>
</clipPath>
</defs>
<rect width="700" height="600" fill="white"/>
<rect x="325" y="125" width="351" height="451" fill="url(#Pat01)"/>
<use x="350" y="350" xlink:href="#system" fill="blue"/>
<line x1="325" y1="350" x2="675" y2="350" style="stroke:green;stroke-width:2"/> 
<line x1="475" y1="444.425" x2="600" y2="164.675" style="stroke:blue;stroke-width:1"/> 
<line x1="552.729" y1="442.724" x2="600" y2="164.675" style="stroke:blue;stroke-width:1"/> 
<line x1="517.192" y1="489.321" x2="600" y2="164.675" style="stroke:blue;stroke-width:1"/> 
<line x1="475" y1="125" x2="475" y2="575" style="stroke:green;stroke-width:2;stroke-dasharray:4 4"/> 
<line x1="517.192" y1="125" x2="517.192" y2="575" style="stroke:green;stroke-width:2;stroke-dasharray:4 4"/> 
<line x1="600" y1="125" x2="600" y2="575" style="stroke:green;stroke-width:2;stroke-dasharray:4 4"/> 
<line x1="552.729" y1="125" x2="552.729" y2="575" style="stroke:green;stroke-width:2;stroke-dasharray:4 4"/> 
<path id="quadra" clip-path="url(#cache)" d="M25,-970.3750000000002 27.5,-911.4624100000003 30,-854.2843600000006 32.5,-798.81061 34.99999999999994,-745.0111600000009 37.49999999999994,-692.856250000001 39.99999999999994,-642.3163600000015 42.49999999999994,-593.362210000001 44.99999999999994,-545.9647600000011 47.49999999999994,-500.0952100000012 49.999999999999886,-455.7250000000017 52.499999999999886,-412.8258100000014 54.999999999999886,-371.3695600000019 57.499999999999886,-331.3284100000021 59.999999999999886,-292.6747600000017 62.499999999999886,-255.38125000000218 64.99999999999988,-219.42076000000213 67.49999999999983,-184.76641000000234 69.99999999999983,-151.39156000000236 72.49999999999983,-119.269810000002 74.99999999999983,-88.37500000000221 77.49999999999983,-58.68121000000184 79.99999999999983,-30.162760000002095 82.49999999999977,-2.794210000002124 84.99999999999977,23.449639999997828 87.49999999999977,48.59374999999767 89.99999999999977,72.66283999999763 92.49999999999977,95.68138999999783 94.99999999999974,117.67363999999784 97.49999999999974,138.66358999999778 99.99999999999974,158.67499999999794 102.49999999999971,177.7313899999979 104.99999999999971,195.85603999999805 107.49999999999971,213.07198999999807 109.99999999999969,229.40203999999815 112.49999999999969,244.868749999998 114.99999999999969,259.4944399999982 117.49999999999966,273.3011899999981 119.99999999999966,286.31083999999816 122.49999999999966,298.5449899999982 124.99999999999966,310.02499999999833 127.49999999999963,320.7719899999985 129.99999999999963,330.80683999999854 132.49999999999963,340.15018999999864 134.9999999999996,348.8224399999986 137.4999999999996,356.84374999999875 139.9999999999996,364.2340399999988 142.49999999999957,371.0129899999988 144.99999999999957,377.200039999999 147.49999999999957,382.8143899999991 149.99999999999954,387.87499999999926 152.49999999999954,392.4005899999992 154.99999999999954,396.4096399999993 157.49999999999952,399.9203899999994 159.99999999999952,402.95083999999946 162.49999999999952,405.5187499999995 164.9999999999995,407.6416399999996 167.4999999999995,409.3367899999997 169.9999999999995,410.6212399999999 172.4999999999995,411.51178999999985 174.99999999999946,412.02499999999986 177.49999999999946,412.17719 179.99999999999946,411.98444000000006 182.49999999999943,411.4625900000001 184.99999999999943,410.6272400000002 187.49999999999943,409.49375000000026 189.9999999999994,408.0772400000003 192.4999999999994,406.39259000000044 194.9999999999994,404.4544400000005 197.49999999999937,402.27719000000053 199.99999999999937,399.8750000000006 202.49999999999937,397.26179000000064 204.99999999999937,394.4512400000007 207.49999999999935,391.4567900000008 209.99999999999935,388.2916400000009 212.49999999999935,384.96875000000096 214.99999999999932,381.50084000000095 217.49999999999932,377.900390000001 219.99999999999932,374.17964000000103 222.49999999999932,370.3505900000011 224.9999999999993,366.42500000000114 227.49999999999926,362.41439000000116 229.99999999999926,358.3300400000012 232.49999999999926,354.1829900000012 234.99999999999926,349.98404000000124 237.49999999999926,345.7437500000013 239.99999999999923,341.4724400000013 242.49999999999923,337.18019000000134 244.9999999999992,332.8768400000014 247.4999999999992,328.57199000000133 249.9999999999992,324.27500000000134 252.4999999999992,319.99499000000133 254.9999999999992,315.74084000000135 257.4999999999992,311.5211900000013 259.9999999999992,307.3444400000013 262.4999999999992,303.2187500000013 264.9999999999992,299.15204000000125 267.4999999999992,295.1519900000012 269.9999999999992,291.2260400000012 272.4999999999992,287.3813900000012 274.9999999999992,283.62500000000113 277.4999999999992,279.9635900000011 279.9999999999992,276.4036400000011 282.4999999999992,272.951390000001 284.9999999999992,269.61284000000103 287.4999999999992,266.393750000001 289.9999999999992,263.2996400000009 292.49999999999926,260.3357900000009 294.99999999999926,257.5072400000008 297.49999999999926,254.81879000000077 299.99999999999926,252.27500000000074 302.49999999999926,249.88019000000068 304.99999999999926,247.63844000000063 307.49999999999926,245.55359000000058 309.99999999999926,243.62924000000055 312.49999999999926,241.8687500000005 314.99999999999926,240.27524000000045 317.49999999999926,238.85159000000038 319.99999999999926,237.60044000000033 322.49999999999926,236.5241900000003 324.99999999999926,235.62500000000023 327.49999999999926,234.90479000000016 329.99999999999926,234.3652400000001 332.49999999999926,234.00779000000006 334.99999999999926,233.83364 337.49999999999926,233.84374999999994 339.99999999999926,234.0388399999999 342.49999999999926,234.41938999999985 344.99999999999926,234.9856399999998 347.49999999999926,235.73758999999973 349.99999999999926,236.67499999999967 352.49999999999926,237.79738999999964 354.99999999999926,239.1040399999996 357.49999999999926,240.5939899999995 359.99999999999926,242.26603999999946 362.49999999999926,244.1187499999994 364.99999999999926,246.15043999999938 367.49999999999926,248.3591899999993 369.99999999999926,250.74283999999926 372.49999999999926,253.2989899999992 374.99999999999926,256.0249999999992 377.49999999999926,258.9179899999991 379.99999999999926,261.97483999999906 382.49999999999926,265.192189999999 384.99999999999926,268.566439999999 387.49999999999926,272.093749999999 389.99999999999926,275.7700399999989 392.49999999999926,279.5909899999989 394.99999999999926,283.55203999999884 397.49999999999926,287.6483899999988 399.99999999999926,291.87499999999875 402.49999999999926,296.22658999999873 404.99999999999926,300.69763999999867 407.49999999999926,305.28238999999865 409.9999999999993,309.97483999999866 412.4999999999993,314.7687499999986 414.9999999999993,319.6576399999986 417.4999999999993,324.6347899999986 419.9999999999993,329.6932399999986 422.4999999999993,334.8257899999985 424.9999999999993,340.02499999999855 427.4999999999993,345.2831899999985 429.9999999999993,350.59243999999853 432.4999999999993,355.94458999999847 434.9999999999993,361.3312399999985 437.4999999999993,366.7437499999985 439.9999999999993,372.1732399999985 442.4999999999993,377.6105899999985 444.9999999999993,383.0464399999985 447.4999999999993,388.4711899999985 449.9999999999993,393.8749999999985 452.4999999999993,399.24778999999853 454.9999999999993,404.57923999999855 457.4999999999993,409.8587899999985 459.9999999999993,415.07563999999854 462.4999999999993,420.2187499999985 464.99999999999926,425.2768399999985 467.49999999999926,430.23838999999856 469.99999999999926,435.0916399999986 472.49999999999926,439.8245899999986 474.99999999999926,444.42499999999864 477.4999999999992,448.88038999999867 479.9999999999992,453.17803999999864 482.4999999999992,457.3049899999987 484.9999999999992,461.24803999999875 487.4999999999992,464.9937499999988 489.9999999999992,468.52843999999885 492.4999999999992,471.8381899999989 494.9999999999992,474.90883999999903 497.4999999999992,477.7259899999992 499.99999999999914,480.2749999999992 502.49999999999914,482.5409899999993 504.99999999999914,484.5088399999993 507.4999999999991,486.1631899999995 509.9999999999991,487.48843999999957 512.4999999999991,488.46874999999966 514.9999999999991,489.08803999999986 517.4999999999991,489.32998999999995 519.9999999999991,489.17804000000006 522.4999999999991,488.6153900000002 524.9999999999991,487.62500000000045 527.4999999999991,486.18959000000063 529.9999999999991,484.2916400000008 532.4999999999991,481.91339000000096 534.9999999999991,479.03684000000123 537.4999999999991,475.64375000000143 539.999999999999,471.7156400000016 542.499999999999,467.2337900000019 544.999999999999,462.17924000000215 547.499999999999,456.53279000000236 549.999999999999,450.2750000000029 552.499999999999,443.38619000000284 554.999999999999,435.84644000000327 557.499999999999,427.63559000000356 559.999999999999,418.73324000000394 562.4999999999989,409.11875000000424 564.9999999999989,398.7712400000045 567.4999999999989,387.669590000005 569.9999999999989,375.7924400000053 572.4999999999989,363.1181900000056 574.9999999999989,349.62500000000614 577.4999999999989,335.2907900000066 579.9999999999989,320.0932400000071 582.4999999999989,304.00979000000745 584.9999999999989,287.01764000000793 587.4999999999989,269.09375000000824 589.9999999999989,250.21484000000896 592.4999999999989,230.35739000000944 594.9999999999989,209.49764000001008 597.4999999999989,187.61159000001052 599.9999999999989,164.6750000000112 602.4999999999989,140.66339000001164 604.9999999999987,115.5520400000122 607.4999999999987,89.31599000001301 609.9999999999987,61.930040000013605 612.4999999999987,33.36875000001436 614.9999999999987,3.6064400000152545 617.4999999999987,-27.38280999998375 619.9999999999987,-59.62515999998345 622.4999999999987,-93.14700999998263 624.9999999999986,-127.97499999998194 627.4999999999986,-164.13600999998096 629.9999999999986,-201.6571599999803 632.4999999999986,-240.56580999997902 634.9999999999986,-280.88955999997824 637.4999999999986,-322.6562499999775 639.9999999999986,-365.89395999997646 642.4999999999986,-410.6310099999755 644.9999999999986,-456.89595999997436 647.4999999999986,-504.71760999997366 649.9999999999986,-554.1249999999723 652.4999999999986,-605.1474099999714 654.9999999999986,-657.8143599999701 657.4999999999986,-712.1556099999691 659.9999999999986,-768.2011599999678 662.4999999999986,-825.9812499999668 664.9999999999986,-885.5263599999662 667.4999999999986,-946.8672099999644 669.9999999999986,-1010.034759999963 672.4999999999985,-1075.0602099999616 674.9999999999985,-1141.9749999999603 " style="stroke:blue;stroke-width:2;fill:none"/> 
<text id="a" style="text-anchor:middle;font-size:15;fill:blue" x="475" y="350" dx="-20" dy="-5" startOffset="0">A</text>
<text id="b" style="text-anchor:middle;font-size:15;fill:blue" x="600" y="350" dx="-20" dy="-5" startOffset="0">B</text>
<text style="text-anchor:middle;font-size:15;fill:blue" x="517.192" y="350" dx="-20" dy="-5" startOffset="0">m</text>
<text style="text-anchor:middle;font-size:15;fill:blue" x="552.729" y="350" dx="-20" dy="-5" startOffset="0">n</text>
<text x="420" y="20" font-size="15" startOffset="0">Calcul on [ <tspan id="deb" fill="blue">5</tspan> ; <tspan id="fin" fill="blue">10</tspan> ] </text>
<text x="420" y="40" font-size="15" startOffset="0">Length for search : <tspan id="ecart" fill="blue">1.77636e-015</tspan></text>
<text x="420" y="60" font-size="15" startOffset="0">Approximation for x : <tspan id="sol" fill="blue">8.9973</tspan></text>
<text x="420" y="80" font-size="15" startOffset="0">f(x) : <tspan id="f_x" fill="blue">2.66454e-015</tspan></text>
<circle cx="475" cy="444.425" r="3" fill="blue"/>
<circle cx="600" cy="164.675" r="3" fill="blue"/>
<circle cx="517.192" cy="489.321" r="3" fill="blue"/>
<circle cx="552.729" cy="442.724" r="3" fill="blue"/>
<rect x="325" y="125" width="351" height="451" fill="yellow" fill-opacity="0.1"/>
<circle id="p1" cx="475" cy="350" r="4" fill="red"/>
<circle id="p2" cx="600" cy="350" r="4" fill="red"/>
<text x="20" y="20" font-size="14" fill="black">Solve equation using secante method
<tspan x="20" dy="1.5em">We search solution between A and B</tspan>
<tspan x="20" dy="1.5em">For A, f ( x<tspan baseline-shift="sub" font-size="8">A</tspan> ) &lt; 0</tspan>
<tspan x="20" dy="1.5em">For B, f ( x<tspan baseline-shift="sub" font-size="8">B</tspan> ) &gt; 0</tspan>
<tspan x="20" dy="1.5em">We suppose that function is continue on [x<tspan baseline-shift="sub" font-size="8">A</tspan> ; x<tspan baseline-shift="sub" font-size="8">B</tspan> ]</tspan>
<tspan x="20" dy="1.5em">We join points (x<tspan baseline-shift="sub" font-size="8">A</tspan> ; f ( x<tspan baseline-shift="sub" font-size="8">A</tspan> ) ) and ( x<tspan baseline-shift="sub" font-size="8">B</tspan> ; f ( x<tspan baseline-shift="sub" font-size="8">B</tspan> ) )</tspan>
<tspan x="20" dy="1.5em">We take m intersection with x axis</tspan>
<tspan x="20" dy="1.5em">For m, f ( x<tspan baseline-shift="sub" font-size="8">m</tspan> ) &lt; 0</tspan>
<tspan x="20" dy="1.5em">As f ( x<tspan baseline-shift="sub" font-size="8">m</tspan> ) * f ( x<tspan baseline-shift="sub" font-size="8">B</tspan> ) &lt; 0</tspan>
<tspan x="20" dy="1.5em">we join points (x<tspan baseline-shift="sub" font-size="8">m</tspan> ; f ( x<tspan baseline-shift="sub" font-size="8">m</tspan> ) ) and ( x<tspan baseline-shift="sub" font-size="8">B</tspan> ; f ( x<tspan baseline-shift="sub" font-size="8">B</tspan> ) )</tspan>
<tspan x="20" dy="1.5em">We take n intersection with x axis</tspan>
<tspan x="20" dy="1.5em">For n, f ( x<tspan baseline-shift="sub" font-size="8">n</tspan> ) &lt; 0</tspan>
<tspan x="20" dy="1.5em">As f ( x<tspan baseline-shift="sub" font-size="8">n</tspan> ) * f ( x<tspan baseline-shift="sub" font-size="8">B</tspan> ) &lt; 0</tspan>
<tspan x="20" dy="1.5em">we join points (x<tspan baseline-shift="sub" font-size="8">n</tspan> ; f ( x<tspan baseline-shift="sub" font-size="8">n</tspan> ) ) and ( x<tspan baseline-shift="sub" font-size="8">B</tspan> ; f ( x<tspan baseline-shift="sub" font-size="8">B</tspan> ) ) ...</tspan>
<tspan x="20" dy="3.5em">We stop when length of segment is smaller</tspan>
<tspan x="20" dy="1.5em">than value choosed</tspan>
<tspan x="20" dy="1.5em">On example, we choose 0.001</tspan>
<tspan x="20" dy="1.5em">We get approached value for solution</tspan>
<tspan x="20" dy="1.5em">We can see that we are near exact value</tspan>
<tspan x="20" dy="1.5em">after only about 30 operations</tspan>

<tspan x="20" dy="3.5em">We can also choosed to stop when absolute</tspan>
<tspan x="20" dy="1.5em">value of f ( x<tspan baseline-shift="sub" font-size="8">point</tspan> ) is smaller than value choosed</tspan>
</text>


</svg>
