<svg width="700" height="600" viewBox="-20 -20 700 600">
<rect x="-20" y="-20" width="700" height="600" style="fill:white"/> 
<text x="450" y="20" startOffset="0">transform="skewY(<tspan id="angle_val">- 30</tspan>)"</text>
<text x="420" y="170" startOffset="0">Matrix : </text>
<g text-anchor="middle" transform="translate(100,150)">
<text id="matrix_a" x="380" y="20" startOffset="0">1</text>
<text id="matrix_c" x="450" y="20" startOffset="0">0</text>
<text id="matrix_e" x="520" y="20" startOffset="0">0</text>
<text id="matrix_b" x="380" y="50" startOffset="0">- 0.58</text>
<text id="matrix_d" x="450" y="50" startOffset="0">1</text>
<text id="matrix_f" x="520" y="50" startOffset="0">0</text>
</g>
<rect x="440" y="0" width="160" height="50" style="fill:white;fill-opacity:0"/>  
<path id="objet" d="M 88 67 77 25 347 47 369 117 z" style="stroke:blue;fill-opacity:0.3; fill:aqua"/>
<path id="image" d="M 88 118 77 70 347 249 369 332 z" style="stroke:red;fill-opacity:0.3; fill:maroon"/>
<circle id="C" cx="88" cy="67" r="3" style="stroke:red; fill:red"/>
<circle id="D" cx="77" cy="25" r="3" style="stroke:red; fill:red"/>
<circle id="E" cx="347" cy="47" r="3" style="stroke:red; fill:red"/>
<circle id="F" cx="369" cy="117" r="3" style="stroke:red; fill:red"/>
<circle id="C1" cx="88" cy="118" r="3" style="stroke:blue; fill:blue"/>
<circle id="D1" cx="77" cy="70" r="3" style="stroke:blue; fill:blue"/>
<circle id="E1" cx="347" cy="249" r="3" style="stroke:blue; fill:blue"/>
<circle id="F1" cx="369" cy="332" r="3" style="stroke:blue; fill:blue"/>  
<path d="M0 67L88 67 L88 118z" style="stroke-dasharray:3 3;stroke:green;stroke-width:1;fill:none"/>
<path d="M0 25L77 25 L77 70z" style="stroke-dasharray:3 3;stroke:green;stroke-width:1;fill:none"/>
<path d="M0 47L347 47 L347 249z" style="stroke-dasharray:3 3;stroke:green;stroke-width:1;fill:none"/>
<path d="M0 117L369 117 L369 332z" style="stroke-dasharray:3 3;stroke:green;stroke-width:1;fill:none"/>
<text x="20" y="250" font-size="15" fill="blue">SkewY :
<tspan x="20" dy="2em" fill="black">Angle is A</tspan>
<tspan x="20" dy="2em" fill="black">Point M in x<tspan baseline-shift="sub">m</tspan> , y<tspan baseline-shift="sub">m</tspan> give point M' in x<tspan baseline-shift="sub">m'</tspan> , y<tspan baseline-shift="sub">m'</tspan></tspan>
<tspan x="20" dy="2em">x<tspan baseline-shift="sub">m'</tspan> =  x<tspan baseline-shift="sub">m</tspan></tspan>
<tspan x="20" dy="2em">y<tspan baseline-shift="sub">m'</tspan> =  x<tspan baseline-shift="sub">m</tspan> * tan ( A ) + y<tspan baseline-shift="sub">m</tspan></tspan>
<tspan x="20" dy="2em" fill="black">Matrix for skewY is : </tspan>
<tspan x="100" dy="2em">1 </tspan>
<tspan x="220">0</tspan>
<tspan x="330">0</tspan>
<tspan x="80" dy="2em">tan ( A )</tspan>
<tspan x="220">1</tspan>
<tspan x="330">0</tspan>
<tspan x="100" dy="2em">0</tspan>
<tspan x="220">0</tspan>
<tspan x="330">1</tspan>
</text>
</svg>
