<svg width="700" height="600">
<defs>
<marker id="endArrow" viewBox="-20 -10 20 20" markerUnits="userSpaceOnUse" refX="0" refY="0" markerWidth="20" markerHeight="20" orient="auto" preserveAspectRatio="xMidYMid meet">
      <path d="M-20,-10 L0,0 -20,10 z"/>
</marker>
</defs>
<rect  x="0" y="0" width="700" height="600" style="fill:white"/> 
<text x="470" y="290" startOffset="0">Matrix : </text>
<g text-anchor="middle" transform="translate(150,270)">
<text id="matrix_a" x="380" y="20" startOffset="0">1</text>
<text id="matrix_c" x="450" y="20" startOffset="0">0</text>
<text id="matrix_e" x="520" y="20" startOffset="0">-240</text>
<text id="matrix_b" x="380" y="50" startOffset="0">0</text>
<text id="matrix_d" x="450" y="50" startOffset="0">1</text>
<text id="matrix_f" x="520" y="50" startOffset="0">0</text>
</g>
<path id="objet" d="M 350 250 451 263 597 135 400 100 z" style="stroke:blue;fill-opacity:0.3; fill:aqua"/>
<path id="image" d="M 110 250 211 263 357 135 160 100 z" style="stroke:red;fill-opacity:0.3; fill:maroon"/>
<path id="axe" d="M 501 28 261 28" style="stroke:black; fill:none" marker-end="url(#endArrow)"/>
<text x="50" y="40" startOffset="0">transform="translate(<tspan id="angle_val">-240,0</tspan>)"</text>
<circle id="A" cx="501" cy="28" r="3" style="stroke:red; fill:red"/>
<circle id="B" cx="261" cy="28" r="3" style="stroke:red; fill:red"/>
<circle id="C" cx="350" cy="250" r="3" style="stroke:red; fill:red"/>
<circle id="D" cx="451" cy="263" r="3" style="stroke:red; fill:red"/>
<circle id="E" cx="597" cy="135" r="3" style="stroke:red; fill:red"/>
<circle id="F" cx="400" cy="100" r="3" style="stroke:red; fill:red"/>
<circle id="C1" cx="110" cy="250" r="3" style="stroke:blue; fill:blue"/>
<circle id="D1" cx="211" cy="263" r="3" style="stroke:blue; fill:blue"/>
<circle id="E1" cx="357" cy="135" r="3" style="stroke:blue; fill:blue"/>
<circle id="F1" cx="160" cy="100" r="3" style="stroke:blue; fill:blue"/>  
<path d="M350 250L110 250" style="stroke-dasharray:3 3;stroke:green;stroke-width:1;fill:none"/>
<path d="M451 263L211 263" style="stroke-dasharray:3 3;stroke:green;stroke-width:1;fill:none"/>
<path d="M597 135L357 135" style="stroke-dasharray:3 3;stroke:green;stroke-width:1;fill:none"/>
<path d="M400 100L160 100" style="stroke-dasharray:3 3;stroke:green;stroke-width:1;fill:none"/>
<text x="20" y="300" font-size="15" fill="blue">Translation :
<tspan x="20" dy="2em" fill="black">Vector is U<tspan baseline-shift="sub">x</tspan> , U<tspan baseline-shift="sub">y</tspan></tspan>
<tspan x="20" dy="2em" fill="black">Point M in x<tspan baseline-shift="sub">m</tspan> , y<tspan baseline-shift="sub">m</tspan> give point M' in x<tspan baseline-shift="sub">m'</tspan> , y<tspan baseline-shift="sub">m'</tspan></tspan>
<tspan x="20" dy="2em">x<tspan baseline-shift="sub">m'</tspan> =  x<tspan baseline-shift="sub">m</tspan> + U<tspan baseline-shift="sub">x</tspan></tspan>
<tspan x="20" dy="2em">y<tspan baseline-shift="sub">m'</tspan> =  y<tspan baseline-shift="sub">m</tspan> + U<tspan baseline-shift="sub">y</tspan></tspan>
<tspan x="20" dy="2em" fill="black">Matrix for translation is : </tspan>
<tspan x="100" dy="2em">1</tspan>
<tspan x="220">0</tspan>
<tspan x="330">U<tspan baseline-shift="sub">x</tspan></tspan>
<tspan x="100" dy="2em">0</tspan>
<tspan x="220">1</tspan>
<tspan x="330">U<tspan baseline-shift="sub">y</tspan></tspan>
<tspan x="100" dy="2em">0</tspan>
<tspan x="220">0</tspan>
<tspan x="340">1</tspan>
</text>
</svg>
