<svg width="700" height="600">
<rect x="0" y="0" width="700" height="600" style="fill:white"/> 
<rect x="440" y="0" width="160" height="25" style="fill:white;fill-opacity:0"/>  
<path d="M 124 151 331 150 331 91 124 93 z" style="stroke:blue;fill-opacity:0.3; fill:aqua"/>
<path d="M 112 271 330 162 318 221 101 329 z" style="stroke:red;fill-opacity:0.3; fill:maroon"/>
<path d="M 24 238 527 104" style="stroke:blue;fill-opacity:0.3; fill:blue"/>
<path d="M108 7 74 356" style="stroke:green;fill-opacity:0.3; fill:green"/>

<circle id="A" cx="24" cy="238" r="3" style="stroke:red; fill:red"/>
<text x="24" y="238" dx="-10" dy="-5">a</text>
<circle id="B" cx="527" cy="104" r="3" style="stroke:red; fill:red"/>
<text x="527" y="104" dx="3" dy="-5">b</text>
<circle id="H" cx="108" cy="7" r="3" style="stroke:red; fill:red"/>
<text x="108" y="7" dx="-15" dy="5">h</text>
<circle id="K" cx="74" cy="356" r="3" style="stroke:red; fill:red"/>
<text x="74" y="356" dx="-15" dy="5">k</text>
<circle id="a" cx="112" cy="215" r="3" style="stroke:green; fill:green"/>
<text x="112" y="215" dx="-5" dy="-5">f</text>

<text x="124" y="93" dx="-15" dy="5">F</text>
<circle id="F" cx="124" cy="93" r="3" style="stroke:red; fill:red"/>
<circle id="F1" cx="101" cy="329" r="3" style="stroke:blue; fill:blue"/>  
<text x="101" y="329" dx="-15" dy="5">F'</text>
<path d="M124 151L112 271" style="stroke-dasharray:3 3;stroke:green;stroke-width:1;fill:none"/>
<path d="M331 150L330 162" style="stroke-dasharray:3 3;stroke:green;stroke-width:1;fill:none"/>
<path d="M331 91L318 221" style="stroke-dasharray:3 3;stroke:green;stroke-width:1;fill:none"/>
<path d="M124 93L101 329" style="stroke-dasharray:3 3;stroke:green;stroke-width:1;fill:none"/>
<text x="350" y="250" font-size="15" fill="black">Affinity on shape
<tspan x="310" dy="2em">Affinity need axis (ab) and direction (hk) - Ratio is k</tspan>
<tspan x="310" dy="2em">To build image of point F :</tspan>
<tspan x="310" dy="1.5em">- we draw parallel to (hk) by F</tspan>
<tspan x="310" dy="1.5em">- this parallel cross axis in f</tspan>
<tspan x="310" dy="1.5em">- we draw vector fF' = k * fF</tspan>
<tspan x="310" dy="1.5em">On this example k is around - 0.5</tspan>
<tspan x="20" dy="1.5em">For most case, affinity keep only parallelism for shape </tspan>
<tspan x="20" dy="1.5em">On this example rectangle become parallelogram</tspan>
<tspan x="20" dy="1.5em">Inverse of this transformation</tspan>
<tspan x="50" dy="1.5em">To retrieve F from F', we use affinity with same axis and direction but with 1 / k as ratio</tspan>
<tspan x="20" dy="1.5em">Composite affinities</tspan>
<tspan x="50" dy="1.5em">We get affinity but it's not easy to retrieve axis, direction and ratio</tspan>

</text>
</svg>
