<svg width="700" height="500" viewBox="0 0 700 500">
<defs>
<pattern id="Pat01" width="25" height="25" patternUnits="userSpaceOnUse" preserveAspectRatio="xMidYMid meet">
	<rect width="25" height="25" fill="white" stroke="#000000" stroke-width="0.1"/>
</pattern>
<marker id="Marker01" viewBox="-15 -5 20 20" refX="0" refY="0" markerUnits="strokeWidth" markerWidth="10" markerHeight="6" orient="auto" preserveAspectRatio="xMidYMid meet">
    		    <path d="M -15 -5 L 0 0 L -15 5 z"/>
</marker>
<marker id="green" viewBox="-15 -5 20 20" refX="0" refY="0" markerUnits="strokeWidth" markerWidth="10" markerHeight="6" orient="auto" preserveAspectRatio="xMidYMid meet">
    		    <path d="M -15 -5 L 0 0 L -15 5 z" fill="green"/>
</marker>
<marker id="blue" viewBox="-15 -5 20 20" refX="0" refY="0" markerUnits="strokeWidth" markerWidth="10" markerHeight="6" orient="auto" preserveAspectRatio="xMidYMid meet">
    		    <path d="M -15 -5 L 0 0 L -15 5 z" fill="blue"/>
</marker>
<g id="system">
    <line marker-end="url(#Marker01)" x1="0" y1="0" x2="25" y2="0" style="stroke:black;stroke-width:2"/> 
    <line marker-end="url(#Marker01)" x1="0" y1="0" x2="0" y2="-25" style="stroke:black;stroke-width:2"/> 
    <circle cx="0" cy="0" r="3" stroke="black"/>
</g>
</defs>
<rect width="700" height="500" fill="url(#Pat01)"/>
<use x="50" y="250" xlink:href="#system" fill="blue"/>
<line id="v1" marker-end="url(#Marker01)" x1="250" y1="175" x2="325" y2="200" style="stroke:black;stroke-width:4"/> 
<line id="v2" marker-end="url(#Marker01)" x1="200" y1="150" x2="325" y2="125" style="stroke:black;stroke-width:4"/> 
<path id="pll" d="M100 350l125 -25 l75 25l-125 25z" fill="green" fill-opacity="0.2"/>
<line id="v1b" marker-end="url(#green)" x1="100" y1="350" x2="175" y2="375" style="stroke:green;stroke-width:4"/> 
<line id="v2b" marker-end="url(#green)" x1="100" y1="350" x2="225" y2="325" style="stroke:green;stroke-width:4"/> 
<line id="v1c" x1="225" y1="325" x2="300" y2="350" style="stroke:green;stroke-width:2;stroke-dasharray:3 3"/> 
<line id="v2c" x1="175" y1="375" x2="300" y2="350" style="stroke:green;stroke-width:2;stroke-dasharray:3 3"/> 
<line id="vs" marker-end="url(#blue)" x1="100" y1="350" x2="100" y2="150" style="stroke:blue;stroke-width:4"/> 
<path id="ag" marker-end="url(#green)" d="M144.20432220039294 364.7347740667976A 75 75 0 0 0 173.67387033398822 335.2652259332024" style="stroke:green;stroke-width:2;fill:none"/>
<text id="a" style="text-anchor:middle;font-size:20;fill:blue" x="250" y="175" dx="-20" dy="-10" startOffset="0">A</text>
<text id="b" style="text-anchor:middle;font-size:20;fill:blue" x="325" y="200" dx="20" dy="-10" startOffset="0">B</text>
<text id="c" style="text-anchor:middle;font-size:20;fill:blue" x="200" y="150" dx="-20" dy="-10" startOffset="0">C</text>
<text id="d" style="text-anchor:middle;font-size:20;fill:blue" x="325" y="125" dx="20" dy="-10" startOffset="0">D</text>
<text x="20" y="420" font-size="15" startOffset="0">Coordinates A : <tspan id="xya">8 ; 3</tspan></text>
<text x="20" y="440" font-size="15" startOffset="0">Coordinates B : <tspan id="xyb">11 ; 2</tspan></text>
<text x="20" y="460" font-size="15" startOffset="0">Coordinates C : <tspan id="xyc">6 ; 4</tspan></text>
<text x="20" y="480" font-size="15" startOffset="0">Coordinates D : <tspan id="xyd">11 ; 5</tspan></text>
<text x="20" y="20" font-size="15" startOffset="0">Vector AB</text>
<text x="20" y="40" font-size="15" startOffset="0">Vector Vx : <tspan id="vxt">3</tspan></text>
<text x="20" y="60" font-size="15" startOffset="0">Vector Vy : <tspan id="vyt">-1</tspan></text>
<text x="20" y="80" font-size="15" startOffset="0">Vector length : <tspan id="vl">3.16</tspan></text>
<text x="220" y="20" font-size="15" startOffset="0">Vector CD :</text>
<text x="220" y="40" font-size="15" startOffset="0">Vector Ux : <tspan id="vxt2">5</tspan></text>
<text x="220" y="60" font-size="15" startOffset="0">Vector Uy : <tspan id="vyt2">1</tspan></text>
<text x="220" y="80" font-size="15" startOffset="0">Vector length : <tspan id="vl2">5.09</tspan></text>
<text x="420" y="20" font-size="15" startOffset="0">Vector W = AB ^ CD :</text>
<text x="420" y="40" font-size="15" startOffset="0">Vector Wz : <tspan id="vxs">8</tspan></text>
<text x="420" y="60" font-size="15" startOffset="0">Vector length : <tspan id="vls">8</tspan></text>
<circle id="p0" cx="100" cy="350" r="4" fill="red"/>
<circle id="p1" cx="250" cy="175" r="4" fill="red"/>
<circle id="p2" cx="325" cy="200" r="4" fill="red"/>
<circle id="p3" cx="200" cy="150" r="4" fill="red"/>
<circle id="p4" cx="325" cy="125" r="4" fill="red"/>
<text x="330" y="300" font-size="18" fill="blue">Cross product W = U ^ V</text>
<text x="330" y="325" font-size="18" fill="blue">W<tspan baseline-shift="sub">z</tspan> = U<tspan baseline-shift="sub">x</tspan> * V<tspan baseline-shift="sub">y</tspan> - U<tspan baseline-shift="sub">y</tspan> * V<tspan baseline-shift="sub">x</tspan></text>
<text x="330" y="350" font-size="18" fill="blue">W<tspan baseline-shift="sub">z</tspan> = sin( angle ) * L<tspan baseline-shift="sub">U</tspan> * L<tspan baseline-shift="sub">V</tspan></text>
<text x="330" y="375" font-size="18" fill="blue">| W<tspan baseline-shift="sub">z</tspan> | = area green parallelogram</text>
<text x="330" y="400" font-size="18" fill="blue">If W<tspan baseline-shift="sub">z</tspan> = 0, U and V are colinear</text>

</svg>
