<svg width="600" height="500" viewBox="0 0 600 500">
<defs>
<pattern id="Pat01" width="25" height="25" patternUnits="userSpaceOnUse">
	<rect width="25" height="25" fill="white" stroke="#000000" stroke-width="0.1"/>
</pattern>
<marker id="Marker01" viewBox="-15 -5 20 20" refX="0" refY="0" 
            	markerUnits="strokeWidth" markerWidth="10" markerHeight="6" 
	        orient="auto">
    		    <path d="M -15 -5 L 0 0 L -15 5 z" />
</marker>
<marker id="green" viewBox="-15 -5 20 20" refX="0" refY="0" 
            	markerUnits="strokeWidth" markerWidth="10" markerHeight="6" 
	        orient="auto">
    		    <path d="M -15 -5 L 0 0 L -15 5 z" fill="green"/>
</marker>
<marker id="blue" viewBox="-15 -5 20 20" refX="0" refY="0" 
            	markerUnits="strokeWidth" markerWidth="10" markerHeight="6" 
	        orient="auto">
    		    <path d="M -15 -5 L 0 0 L -15 5 z" fill="blue"/>
</marker>
<g id="system">
    <line marker-end="url(#Marker01)" x1="0" y1="0" x2="25" y2="0" style="stroke:black;stroke-width:2"/> 
    <line marker-end="url(#Marker01)" x1="0" y1="0" x2="0" y2="-25" style="stroke:black;stroke-width:2"/> 
    <circle cx="0" cy="0" r="3" stroke="black"/>
</g>
</defs>
<rect width="600" height="500" fill="url(#Pat01)"/>
<use x="50" y="250" xlink:href="#system" fill="blue"/>
<line id="v1" marker-end="url(#Marker01)" x1="175" y1="150" x2="375" y2="100" style="stroke:black;stroke-width:4"/> 
<line id="v2" marker-end="url(#Marker01)" x1="200" y1="175" x2="325" y2="225" style="stroke:black;stroke-width:4"/> 
<line id="v1b" marker-end="url(#green)" x1="39" y1="292" x2="239" y2="242" style="stroke:green;stroke-width:4"/> 
<line id="v2b" marker-end="url(#green)" x1="39" y1="292" x2="164" y2="342" style="stroke:green;stroke-width:4"/> 
<line id="v1c" x1="164" y1="342" x2="144.882" y2="265.529" style="stroke:green;stroke-width:2;stroke-dasharray:3 3"/> 
<line id="vs" marker-end="url(#blue)" x1="39" y1="292" x2="144.882" y2="265.529" style="stroke:blue;stroke-width:4"/> 
<path id="ag" marker-end="url(#green)" d="M108.70260223048328 319.8810408921933A 75 75 0 0 0 111.81553398058253 273.79611650485435" style="stroke:green;stroke-width:2;fill:none"/>
<text id="a" style="text-anchor:middle;font-size:20;fill:blue" x="175" y="150" dx="-20" dy="-10" startOffset="0">A</text>
<text id="b" style="text-anchor:middle;font-size:20;fill:blue" x="375" y="100" dx="20" dy="-10" startOffset="0">B</text>
<text id="c" style="text-anchor:middle;font-size:20;fill:blue" x="200" y="175" dx="-20" dy="-10" startOffset="0">C</text>
<text id="d" style="text-anchor:middle;font-size:20;fill:blue" x="325" y="225" dx="20" dy="-10" startOffset="0">D</text>
<text x="20" y="420" font-size="15" startOffset="0">Coordinates A : <tspan id="xya">5 ; 4</tspan></text>
<text x="20" y="440" font-size="15" startOffset="0">Coordinates B : <tspan id="xyb">13 ; 6</tspan></text>
<text x="20" y="460" font-size="15" startOffset="0">Coordinates C : <tspan id="xyc">6 ; 3</tspan></text>
<text x="20" y="480" font-size="15" startOffset="0">Coordinates D : <tspan id="xyd">11 ; 1</tspan></text>
<text x="20" y="20" font-size="15" startOffset="0">Vector AB</text>
<text x="20" y="40" font-size="15" startOffset="0">Vector Vx : <tspan id="vxt">8</tspan></text>
<text x="20" y="60" font-size="15" startOffset="0">Vector Vy : <tspan id="vyt">2</tspan></text>
<text x="20" y="80" font-size="15" startOffset="0">Vector length : <tspan id="vl">8.24</tspan></text>
<text x="220" y="20" font-size="15" startOffset="0">Vector CD :</text>
<text x="220" y="40" font-size="15" startOffset="0">Vector Ux : <tspan id="vxt2">5</tspan></text>
<text x="220" y="60" font-size="15" startOffset="0">Vector Uy : <tspan id="vyt2">-2</tspan></text>
<text x="220" y="80" font-size="15" startOffset="0">Vector length : <tspan id="vl2">5.38</tspan></text>
<text x="420" y="20" font-size="15" startOffset="0">Dot product :</text>
<text x="420" y="40" font-size="15" startOffset="0">Value : <tspan id="vxs">36</tspan></text>
<text x="420" y="60" font-size="15" startOffset="0">Cosinus : <tspan id="vys">0.810679</tspan></text>
<text x="420" y="80" font-size="15" startOffset="0">Angle : <tspan id="vls">35</tspan> degrees</text>
<circle id="p0" cx="39" cy="292" r="4" fill="red"/>
<circle id="p1" cx="175" cy="150" r="4" fill="red"/>
<circle id="p2" cx="375" cy="100" r="4" fill="red"/>
<circle id="p3" cx="200" cy="175" r="4" fill="red"/>
<circle id="p4" cx="325" cy="225" r="4" fill="red"/>

<text x="300" y="300" font-size="18" fill="blue">Dot product U <tspan font-size="40">.</tspan> V</text>
<text x="300" y="325" font-size="18" fill="blue">Value : V<tspan baseline-shift="sub">x</tspan> * U<tspan baseline-shift="sub">x</tspan> + V<tspan baseline-shift="sub">y</tspan> * U<tspan baseline-shift="sub">y</tspan></text>
<text x="300" y="350" font-size="18" fill="blue">Value : cos( angle ) * L<tspan baseline-shift="sub">V</tspan> * L<tspan baseline-shift="sub">U</tspan></text>
<text x="300" y="375" font-size="18" fill="blue">If V<tspan dx="20">U </tspan> <tspan dx="20">U </tspan><tspan font-size="40">.</tspan> V = 0</text>
<path d="M332 375h12M338 375v-10 " fill="none" stroke="blue" stroke-width="2"/>
<text x="300" y="420" font-size="18" fill="blue">L<tspan baseline-shift="sub">V</tspan> = <tspan dx="20">V </tspan><tspan font-size="40">.</tspan> V</text>
<path d="M345 400l6 25 6 -25 h55 " fill="none" stroke="blue"/>

</svg>