<svg width="700" height="600" viewBox="0 0 700 600">
<rect width="700" height="600" fill="white"/>
<text id="a" style="text-anchor:middle;font-size:14;fill:blue" x="577" y="94" dx="14" dy="-5" startOffset="0">w'</text>
<text id="b" style="text-anchor:middle;font-size:14;fill:blue" x="657" y="77" dx="14" dy="-5" startOffset="0">B</text>
<text id="c" style="text-anchor:middle;font-size:14;fill:blue" x="381" y="56" dx="-14" dy="-5" startOffset="0">C</text>
<text id="w" style="text-anchor:middle;font-size:14;fill:blue" x="468" y="131" dx="-14" dy="-5" startOffset="0">w</text>
<circle id="circ1" cx="468" cy="131" r="114.865" fill="red" stroke="red" fill-opacity="0.1"/>
<circle id="circ2" cx="577" cy="94" r="81.7863" fill="green" stroke="green" fill-opacity="0.1"/>
<path id="lunule" d="M573.80070839454,175.72370851364516A114.86513831445988,114.86513831445988 0 0 0 524.7121217941392,31.11138582597755A81.78630692236932,81.78630692236932 0 0 0 573.80070839454,175.72370851364516 z" fill="yellow" stroke="blue" fill-opacity="0.3" visibility="visible"/>
<path d="M468 131 L577 94 M574 176 L523 31" fill="none" stroke="green" stroke-width="2"/>
<path d="M468 131 L525 31 L577 94" fill="none" stroke="green" stroke-width="2"/>
<text id="e" style="text-anchor:middle;font-size:14;fill:blue" x="573.801" y="175.724" dx="14" dy="-5" startOffset="0">E</text>
<text id="f" style="text-anchor:middle;font-size:14;fill:blue" x="524.712" y="31.1114" dx="14" dy="-5" startOffset="0">F</text>
<text style="text-anchor:middle;font-size:14;fill:blue" x="549" y="103.6" dx="-14" dy="-5" startOffset="0">M</text>
<circle id="p5" cx="573.801" cy="175.724" r="4" fill="blue"/>
<circle id="p6" cx="524.712" cy="31.1114" r="4" fill="blue"/>
<circle cx="549" cy="103.6" r="4" fill="blue"/>
<circle id="p1" cx="577" cy="94" r="4" fill="red"/>
<circle id="p2" cx="657" cy="77" r="4" fill="red"/>
<circle id="p3" cx="468" cy="131" r="4" fill="red"/>
<circle id="p4" cx="381" cy="56" r="4" fill="red"/>
<text x="20" y="20" font-size="14" fill="black">Circle C defined by center W and B, circle C' by centre W' and C
<tspan x="20" dy="2.5em">We calculate coordinates of E and F as in previous item</tspan>
<tspan x="20" dy="2.5em">We draw common area using arc in path element:</tspan>
<tspan x="20" dy="1.5em">We know points and radius, remain problem of flags ...</tspan>
<tspan x="20" dy="2.5em">We know angle ag2 between WM and WE</tspan>
<tspan x="20" dy="1.5em">We calculate angle ag3 between W'M and W'E</tspan>
<tspan x="20" dy="2.5em">if (ag2 &lt;= Math.PI / 2)</tspan>
<tspan x="60" dy="1.5em">sweep1 = 1</tspan>
<tspan x="20" dy="1.5em">else</tspan>
<tspan x="60" dy="1.5em">sweep1 = 0</tspan>
<tspan x="20" dy="1.5em">if (ag3 &lt;= Math.PI / 2)</tspan>
<tspan x="60" dy="1.5em">sweep2 = 0</tspan>
<tspan x="20" dy="1.5em">else</tspan>
<tspan x="60" dy="1.5em">sweep2 = 1</tspan>
<tspan x="20" dy="1.5em">str = "M" + xE  +","+ yE  + " A " + R + "," + R + " 0 " + sweep1 + " 0 "</tspan>
<tspan x="20" dy="1.5em">str += xF  + ","+ yF  + " A " + R' + "," + R' + " 0 " + sweep2 + " 0 " + xE  + "," + yE + " z"</tspan>
<tspan x="20" dy="2.5em">When there is not common point for circles</tspan>
<tspan x="20" dy="1.5em">We test if a circle is interior using length WW' and radius</tspan>
<tspan x="20" dy="1.5em">If WW' &lt; R + R' circle is interior</tspan>
<tspan x="20" dy="1.5em">If R &lt; R' circle defined by W and B is interior</tspan>
<tspan x="20" dy="1.5em">If R &gt; R' circle defined by W' and C is interior</tspan>
<tspan x="20" dy="1.5em">We can define this circle by a path element</tspan>
<tspan x="20" dy="1.5em">str = "M" + ( xW'  + R' ) + "," + yW' + "A" + R' + "," + R' +" 0 0 0 " + ( xW' - R' ) + "," + yW'</tspan>
<tspan x="20" dy="1.5em">str += "A" + R' + "," + R' +" 0 0 0 " + ( xW' + R' ) + "," + yW' + "z"</tspan>
	
					
				
						
	
</text>
</svg>
