<svg xmlns="http://www.w3.org/2000/svg" width="700" height="600" viewBox="0 0 700 600">
 <defs>
<pattern id="Pat01" width="50" height="50" patternUnits="userSpaceOnUse" preserveAspectRatio="xMidYMid meet">
	<rect width="50" height="50" fill="white" stroke="#000000" stroke-width="0.1"/>
</pattern>
<marker id="Marker01" viewBox="-15 -5 20 20" refX="0" refY="0" markerUnits="strokeWidth" markerWidth="10" markerHeight="6" orient="auto" preserveAspectRatio="xMidYMid meet">
    		    <path d="M -15 -5 L 0 0 L -15 5 z"/>
</marker>
<marker id="green" viewBox="-15 -5 20 20" refX="0" refY="0" markerUnits="strokeWidth" markerWidth="10" markerHeight="6" orient="auto" preserveAspectRatio="xMidYMid meet">
    		    <path d="M -15 -5 L 0 0 L -15 5 z" fill="green"/>
</marker>
<marker id="blue" viewBox="-15 -5 20 20" refX="0" refY="0" markerUnits="strokeWidth" markerWidth="10" markerHeight="6" orient="auto" preserveAspectRatio="xMidYMid meet">
    		    <path d="M -15 -5 L 0 0 L -15 5 z" fill="blue"/>
</marker>
<g id="system">
    <line marker-end="url(#Marker01)" x1="0" y1="0" x2="50" y2="0" style="stroke:black;stroke-width:2"/> 
    <line marker-end="url(#Marker01)" x1="0" y1="0" x2="0" y2="-50" style="stroke:black;stroke-width:2"/> 
    <circle cx="0" cy="0" r="3" stroke="black"/>
</g>
</defs>
 <rect width="700" height="600" fill="white"/>
  <text x="20" y="20" font-size="15" startOffset="0">
    Here is a simple mathematical function: y(x) = sin(x)
 <tspan x="20" dy="1.5em">To draw graph, we calculate values of y and join points by line</tspan>
 </text>
<g transform="translate(0,-30)">
   <rect x="20" y="100" width="660" height="200" fill="url(#Pat01)" stroke="black"/>
    <use x="350" y="200" xlink:href="#system" fill="blue"/>
    <path id="graph" d="M20,215.5770681756689 51.41592653589794,184.67547768660955 82.83185307179587,159.62733385990918 114.24777960769381,150.0001762822715 145.66370614359175,159.47125193330294 177.07963267948966,184.4229318243311 208.4955592153876,215.32452231339045 239.91148575128554,240.37266614009081 271.32741228718345,249.9998237177285 302.7433388230814,240.52874806669706 334.1592653589793,215.5770681756689 365.57519189487726,184.67547768660955 396.9911184307752,159.62733385990918 428.40704496667314,150.0001762822715 459.822971502571,159.47125193330294 491.23889803846896,184.4229318243311 522.6548245743669,215.32452231339045 554.0707511102648,240.37266614009081 585.4866776461628,249.9998237177285 616.9026041820607,240.52874806669706 648.3185307179586,215.57706817566893 679.7344572538566,184.67547768660955 " stroke="darkblue" stroke-width="2" fill="none"/>
    <path id="graphPnts" d="M20,215.5770681756689Z M51.41592653589794,184.67547768660955Z M82.83185307179587,159.62733385990918Z M114.24777960769381,150.0001762822715Z M145.66370614359175,159.47125193330294Z M177.07963267948966,184.4229318243311Z M208.4955592153876,215.32452231339045Z M239.91148575128554,240.37266614009081Z M271.32741228718345,249.9998237177285Z M302.7433388230814,240.52874806669706Z M334.1592653589793,215.5770681756689Z M365.57519189487726,184.67547768660955Z M396.9911184307752,159.62733385990918Z M428.40704496667314,150.0001762822715Z M459.822971502571,159.47125193330294Z M491.23889803846896,184.4229318243311Z M522.6548245743669,215.32452231339045Z M554.0707511102648,240.37266614009081Z M585.4866776461628,249.9998237177285Z M616.9026041820607,240.52874806669706Z M648.3185307179586,215.57706817566893Z M679.7344572538566,184.67547768660955Z " stroke="gold" stroke-width="4" stroke-linecap="round" fill="none"/>
</g>
<text x="20" y="320" font-size="15">Step for calculation is Pi / 5</text>
<g transform="translate(0,250)">
   <rect x="20" y="100" width="660" height="200" fill="url(#Pat01)" stroke="black"/>
    <use x="350" y="200" xlink:href="#system" fill="blue"/>
    <path id="graph" d="M20,215.5770681756689 35.70796326794897,200.13277121703672 51.41592653589794,184.67547768660955 67.12388980384691,170.71825517244233 82.83185307179587,159.62733385990918 98.53981633974484,152.4883704020735 114.24777960769381,150.0001762822715 129.95574287564278,152.40631327721712 145.66370614359175,159.47125193330294 161.37166941154072,170.50342683054922 177.07963267948966,184.4229318243311 192.78759594743863,199.86722878296325 208.4955592153876,215.32452231339045 224.20352248333657,229.28174482755767 239.91148575128554,240.37266614009081 255.6194490192345,247.51162959792646 271.32741228718345,249.9998237177285 287.0353755551324,247.59368672278288 302.7433388230814,240.52874806669706 318.45130209103035,229.4965731694508 334.1592653589793,215.5770681756689 349.8672286269283,200.13277121703675 365.57519189487726,184.67547768660955 381.28315516282623,170.71825517244233 396.9911184307752,159.62733385990918 412.69908169872417,152.48837040207354 428.40704496667314,150.0001762822715 444.1150082346221,152.40631327721712 459.822971502571,159.47125193330294 475.53093477052004,170.5034268305492 491.23889803846896,184.4229318243311 506.946861306418,199.86722878296325 522.6548245743669,215.32452231339045 538.3627878423158,229.28174482755764 554.0707511102648,240.37266614009081 569.7787143782139,247.51162959792646 585.4866776461628,249.9998237177285 601.1946409141117,247.59368672278288 616.9026041820607,240.52874806669706 632.6105674500097,229.4965731694508 648.3185307179586,215.57706817566893 664.0264939859076,200.13277121703675 679.7344572538566,184.67547768660955 " stroke="darkblue" stroke-width="2" fill="none"/>
    <path id="graphPnts" d="M20,215.5770681756689Z M35.70796326794897,200.13277121703672Z M51.41592653589794,184.67547768660955Z M67.12388980384691,170.71825517244233Z M82.83185307179587,159.62733385990918Z M98.53981633974484,152.4883704020735Z M114.24777960769381,150.0001762822715Z M129.95574287564278,152.40631327721712Z M145.66370614359175,159.47125193330294Z M161.37166941154072,170.50342683054922Z M177.07963267948966,184.4229318243311Z M192.78759594743863,199.86722878296325Z M208.4955592153876,215.32452231339045Z M224.20352248333657,229.28174482755767Z M239.91148575128554,240.37266614009081Z M255.6194490192345,247.51162959792646Z M271.32741228718345,249.9998237177285Z M287.0353755551324,247.59368672278288Z M302.7433388230814,240.52874806669706Z M318.45130209103035,229.4965731694508Z M334.1592653589793,215.5770681756689Z M349.8672286269283,200.13277121703675Z M365.57519189487726,184.67547768660955Z M381.28315516282623,170.71825517244233Z M396.9911184307752,159.62733385990918Z M412.69908169872417,152.48837040207354Z M428.40704496667314,150.0001762822715Z M444.1150082346221,152.40631327721712Z M459.822971502571,159.47125193330294Z M475.53093477052004,170.5034268305492Z M491.23889803846896,184.4229318243311Z M506.946861306418,199.86722878296325Z M522.6548245743669,215.32452231339045Z M538.3627878423158,229.28174482755764Z M554.0707511102648,240.37266614009081Z M569.7787143782139,247.51162959792646Z M585.4866776461628,249.9998237177285Z M601.1946409141117,247.59368672278288Z M616.9026041820607,240.52874806669706Z M632.6105674500097,229.4965731694508Z M648.3185307179586,215.57706817566893Z M664.0264939859076,200.13277121703675Z M679.7344572538566,184.67547768660955Z " stroke="gold" stroke-width="4" stroke-linecap="round" fill="none"/>
</g>
<text x="20" y="580" font-size="15">Step for calculation is Pi / 10</text>
</svg>
