<svg width="600" height="600">
<rect x="0" y="0" width="600" height="600" style="fill:white"/> 
<text x="450" y="20" startOffset="0">Angle : <tspan id="angle_val">30</tspan> degrees</text>
<text x="450" y="40" startOffset="0">Scale : <tspan id="rapp_val">0.75</tspan></text>
<text x="20" y="20" startOffset="0">Matrix : </text>
<g text-anchor="middle" transform="translate(-300,0)">
<text id="matrix_a" x="380" y="20" startOffset="0">0.64</text>
<text id="matrix_c" x="450" y="20" startOffset="0">-0.38</text>
<text id="matrix_e" x="520" y="20" startOffset="0">19.69</text>
<text id="matrix_b" x="380" y="50" startOffset="0">0.38</text>
<text id="matrix_d" x="450" y="50" startOffset="0">0.64</text>
<text id="matrix_f" x="520" y="50" startOffset="0">140.43</text>
</g>
<rect x="440" y="0" width="160" height="50" style="fill:white;fill-opacity:0"/>  
<path id="objet" d="M 276 204 515 122 550 290 328 297 z" style="stroke:blue;fill-opacity:0.3; fill:aqua"/>
<path id="image" d="M 275 168 397 25 483 120 343 208 z" style="stroke:red;fill-opacity:0.3; fill:maroon"/>
<circle id="A" cx="223" cy="158" r="3" style="stroke:red; fill:red"/>
<circle id="C" cx="276" cy="204" r="3" style="stroke:red; fill:red"/>
<circle id="D" cx="515" cy="122" r="3" style="stroke:red; fill:red"/>
<circle id="E" cx="550" cy="290" r="3" style="stroke:red; fill:red"/>
<circle id="F" cx="328" cy="297" r="3" style="stroke:red; fill:red"/>
<circle id="C1" cx="275" cy="168" r="3" style="stroke:blue; fill:blue"/>
<circle id="D1" cx="397" cy="25" r="3" style="stroke:blue; fill:blue"/>
<circle id="E1" cx="483" cy="120" r="3" style="stroke:blue; fill:blue"/>
<circle id="F1" cx="343" cy="208" r="3" style="stroke:blue; fill:blue"/>  
<text x="20" y="250" font-size="15" fill="blue">Similarity
<tspan x="20" dy="2em" fill="black">Center is in x<tspan baseline-shift="sub">c</tspan> , y<tspan baseline-shift="sub">c</tspan> - Ratio is k and angle A</tspan>
<tspan x="20" dy="2em" fill="black">Point M in x<tspan baseline-shift="sub">m</tspan> , y<tspan baseline-shift="sub">m</tspan> give point M' in x<tspan baseline-shift="sub">m'</tspan> , y<tspan baseline-shift="sub">m'</tspan></tspan>
<tspan x="20" dy="2em">x<tspan baseline-shift="sub">m'</tspan> =  x<tspan baseline-shift="sub">m</tspan> * k * cos ( A ) - y<tspan baseline-shift="sub">m</tspan> * sin ( A ) + x<tspan baseline-shift="sub">c</tspan> * ( 1 - k * cos ( A ) ) + y<tspan baseline-shift="sub">c</tspan> * sin ( A )</tspan>
<tspan x="20" dy="2em">y<tspan baseline-shift="sub">m'</tspan> =  x<tspan baseline-shift="sub">m</tspan> * sin ( A ) + y<tspan baseline-shift="sub">m</tspan> * k * cos ( A ) - x<tspan baseline-shift="sub">c</tspan> * sin ( A ) + y<tspan baseline-shift="sub">c</tspan> * ( 1 - k * cos ( A ) )</tspan>
<tspan x="20" dy="2em" fill="black">Matrix for similarity is : </tspan>
<tspan x="100" dy="2em">k * cos ( A ) </tspan>
<tspan x="200">- sin ( A ) </tspan>
<tspan x="300">x<tspan baseline-shift="sub">c</tspan> * ( 1 - k * cos ( A ) ) + y<tspan baseline-shift="sub">c</tspan> * sin ( A )</tspan>
<tspan x="100" dy="2em">sin ( A ) </tspan>
<tspan x="210">k * cos ( A ) </tspan>
<tspan x="300">- x<tspan baseline-shift="sub">c</tspan> * sin ( A ) + y<tspan baseline-shift="sub">c</tspan> * ( 1 - k * cos ( A ) )</tspan>
<tspan x="120" dy="2em">0</tspan>
<tspan x="220">0</tspan>
<tspan x="410">1</tspan>

</text>
</svg>
